<svg width="2456" height="3030" viewBox="0 0 2456 3030" fill="none" xmlns="http://www.w3.org/2000/svg">
<path d="M329.097 1168.87C243.084 1069.29 284.061 984.637 315.301 954.756L759.885 478.299L2399.29 2008.04L1954.71 2484.5C1927.06 2517.73 1845.44 2564.46 1740.15 2485.54C1608.54 2386.88 1569.62 2435.08 1517.18 2454.57C1464.73 2474.06 1401.52 2483.5 1326.3 2358.97C1251.07 2234.44 1159.93 2131.28 1019.21 2128.77C906.633 2126.76 841.587 2077.74 819.81 2057.42C798.034 2037.1 744.631 1975.6 734.845 1863.43C722.611 1723.22 613.403 1639.43 483.971 1572.99C354.54 1506.55 359.587 1442.84 375.405 1389.18C391.223 1335.51 436.614 1293.35 329.097 1168.87Z" fill="black"/>
<path d="M329.097 1168.87C243.084 1069.29 284.061 984.637 315.301 954.756L759.885 478.299L2399.29 2008.04L1954.71 2484.5C1927.06 2517.73 1845.44 2564.46 1740.15 2485.54C1608.54 2386.88 1569.62 2435.08 1517.18 2454.57C1464.73 2474.06 1401.52 2483.5 1326.3 2358.97C1251.07 2234.44 1159.93 2131.28 1019.21 2128.77C906.633 2126.76 841.587 2077.74 819.81 2057.42C798.034 2037.1 744.631 1975.6 734.845 1863.43C722.611 1723.22 613.403 1639.43 483.971 1572.99C354.54 1506.55 359.587 1442.84 375.405 1389.18C391.223 1335.51 436.614 1293.35 329.097 1168.87Z" fill="url(#paint0_linear_578_3335)"/>
<path d="M448.178 434.619C414.033 307.542 487.75 249.133 528.877 235.813L1136.43 0.135126L1947.36 2090.63L1339.81 2326.31C1300.46 2344.21 1206.63 2350.79 1146.15 2233.93C1070.55 2087.85 1014.53 2114.32 958.836 2109.06C903.138 2103.81 842.112 2084.81 828.533 1939.96C814.955 1795.11 777.75 1662.58 652.127 1599.12C551.63 1548.35 514.378 1475.92 503.606 1448.15C492.835 1420.38 471.496 1341.77 511.467 1236.51C561.431 1104.94 499.534 981.988 411.88 865.872C324.226 749.755 356.48 694.577 394.062 653.135C431.645 611.693 490.858 593.465 448.178 434.619Z" fill="black"/>
<path d="M448.178 434.619C414.033 307.542 487.75 249.133 528.877 235.813L1136.43 0.135126L1947.36 2090.63L1339.81 2326.31C1300.46 2344.21 1206.63 2350.79 1146.15 2233.93C1070.55 2087.85 1014.53 2114.32 958.836 2109.06C903.138 2103.81 842.112 2084.81 828.533 1939.96C814.955 1795.11 777.75 1662.58 652.127 1599.12C551.63 1548.35 514.378 1475.92 503.606 1448.15C492.835 1420.38 471.496 1341.77 511.467 1236.51C561.431 1104.94 499.534 981.988 411.88 865.872C324.226 749.755 356.48 694.577 394.062 653.135C431.645 611.693 490.858 593.465 448.178 434.619Z" fill="url(#paint1_linear_578_3335)"/>
<path d="M686.002 1004.15C632.822 883.789 696.738 814.792 735.343 795.339L1299.7 469.506L2420.84 2411.37L2256.48 2587.2C2220.33 2610.91 2128.62 2631.76 2050.97 2525.53C1953.92 2392.73 1902.61 2427.46 1846.76 2430.78C1790.92 2434.11 1401.5 2524.83 1292.13 2423.6C1185.36 2324.78 1199.52 2167.26 1065.67 2123.75C958.585 2088.95 910.693 2023.07 895.801 1997.27C880.909 1971.48 847.797 1897.06 871.198 1786.93C900.449 1649.26 820.476 1537.22 716.092 1435.88C611.709 1334.53 635.144 1275.07 665.946 1228.37C696.748 1181.67 752.476 1154.6 686.002 1004.15Z" fill="black"/>
<path d="M686.002 1004.15C632.822 883.789 696.738 814.792 735.343 795.339L1299.7 469.506L2420.84 2411.37L2256.48 2587.2C2220.33 2610.91 2128.62 2631.76 2050.97 2525.53C1953.92 2392.73 1902.61 2427.46 1846.76 2430.78C1790.92 2434.11 1401.5 2524.83 1292.13 2423.6C1185.36 2324.78 1199.52 2167.26 1065.67 2123.75C958.585 2088.95 910.693 2023.07 895.801 1997.27C880.909 1971.48 847.797 1897.06 871.198 1786.93C900.449 1649.26 820.476 1537.22 716.092 1435.88C611.709 1334.53 635.144 1275.07 665.946 1228.37C696.748 1181.67 752.476 1154.6 686.002 1004.15Z" fill="url(#paint2_linear_578_3335)"/>
<defs>
<linearGradient id="paint0_linear_578_3335" x1="-488.042" y1="686.47" x2="1503.03" y2="2291.73" gradientUnits="userSpaceOnUse">
<stop stop-color="#F6BB06"/>
<stop offset="0.505208" stop-color="#F7C415"/>
<stop offset="1" stop-color="#F4DD41"/>
</linearGradient>
<linearGradient id="paint1_linear_578_3335" x1="565.718" y1="336.698" x2="1240.14" y2="2846.95" gradientUnits="userSpaceOnUse">
<stop stop-color="#F6BA04"/>
<stop offset="0.195" stop-color="#F6BA04"/>
<stop offset="1" stop-color="#66B15B"/>
</linearGradient>
<linearGradient id="paint2_linear_578_3335" x1="1250.13" y1="497.957" x2="1536.27" y2="3216.26" gradientUnits="userSpaceOnUse">
<stop stop-color="#F6BA05"/>
<stop offset="0.505208" stop-color="#49A861"/>
<stop offset="1" stop-color="#49A861"/>
</linearGradient>
</defs>
</svg>
