<svg width="24" height="25" viewBox="0 0 24 25" fill="none" xmlns="http://www.w3.org/2000/svg">
<path d="M11.5 15.5H7C5.93913 15.5 4.92172 15.9214 4.17157 16.6716C3.42143 17.4217 3 18.4391 3 19.5V21.5M21.378 17.126C21.7764 16.7276 22.0001 16.1874 22.0001 15.624C22.0001 15.0606 21.7764 14.5204 21.378 14.122C20.9796 13.7236 20.4394 13.4999 19.876 13.4999C19.3126 13.4999 18.7724 13.7236 18.374 14.122L14.364 18.134C14.1262 18.3716 13.9522 18.6653 13.858 18.988L13.021 21.858C12.9959 21.944 12.9944 22.0353 13.0166 22.1221C13.0389 22.2089 13.0841 22.2882 13.1474 22.3516C13.2108 22.4149 13.2901 22.4601 13.3769 22.4824C13.4637 22.5046 13.555 22.5031 13.641 22.478L16.511 21.641C16.8337 21.5468 17.1274 21.3728 17.365 21.135L21.378 17.126ZM14 7.5C14 9.70914 12.2091 11.5 10 11.5C7.79086 11.5 6 9.70914 6 7.5C6 5.29086 7.79086 3.5 10 3.5C12.2091 3.5 14 5.29086 14 7.5Z" stroke="#242424" stroke-width="2" stroke-linecap="round" stroke-linejoin="round"/>
</svg>
