<svg width="25" height="24" viewBox="0 0 25 24" fill="none" xmlns="http://www.w3.org/2000/svg">
<path d="M12 15H7.5C6.43913 15 5.42172 15.4214 4.67157 16.1716C3.92143 16.9217 3.5 17.9391 3.5 19V21M21.878 16.626C22.2764 16.2276 22.5001 15.6874 22.5001 15.124C22.5001 14.5606 22.2764 14.0204 21.878 13.622C21.4796 13.2236 20.9394 12.9999 20.376 12.9999C19.8126 12.9999 19.2724 13.2236 18.874 13.622L14.864 17.634C14.6262 17.8716 14.4522 18.1653 14.358 18.488L13.521 21.358C13.4959 21.444 13.4944 21.5353 13.5166 21.6221C13.5389 21.7089 13.5841 21.7882 13.6474 21.8516C13.7108 21.9149 13.7901 21.9601 13.8769 21.9824C13.9637 22.0046 14.055 22.0031 14.141 21.978L17.011 21.141C17.3337 21.0468 17.6274 20.8728 17.865 20.635L21.878 16.626ZM14.5 7C14.5 9.20914 12.7091 11 10.5 11C8.29086 11 6.5 9.20914 6.5 7C6.5 4.79086 8.29086 3 10.5 3C12.7091 3 14.5 4.79086 14.5 7Z" stroke="#FBFBFB" stroke-width="2" stroke-linecap="round" stroke-linejoin="round"/>
</svg>
