<svg width="130" height="130" viewBox="0 0 130 130" fill="none" xmlns="http://www.w3.org/2000/svg">
<mask id="mask0_432_413" style="mask-type:alpha" maskUnits="userSpaceOnUse" x="0" y="0" width="130" height="130">
<circle cx="64.7869" cy="64.7869" r="64.7869" fill="#D9D9D9"/>
</mask>
<g mask="url(#mask0_432_413)">
<path d="M100.304 118.274C100.007 118.487 99.6669 118.699 99.3695 118.912C99.0296 119.124 98.7322 119.337 98.3923 119.506C98.095 119.676 97.8401 119.846 97.5427 120.016C97.5002 120.059 97.4577 120.059 97.4152 120.101C96.4381 120.696 95.4185 121.248 94.3989 121.758C94.1015 121.928 93.7616 122.098 93.4642 122.225C93.4642 122.225 93.4218 122.268 93.3793 122.268C93.0394 122.438 92.6995 122.608 92.3597 122.778C91.6799 123.118 90.9577 123.415 90.278 123.712C89.9381 123.882 89.5557 124.01 89.2159 124.137C88.876 124.265 88.4937 124.435 88.1538 124.562C87.8139 124.69 87.4316 124.859 87.0917 124.987C87.0917 124.987 87.0917 124.987 87.0492 124.987C86.7093 125.114 86.327 125.242 85.9871 125.369C85.2224 125.624 84.4152 125.879 83.6505 126.134C83.3956 126.219 83.0982 126.304 82.8433 126.389C82.0361 126.644 81.2289 126.856 80.4218 127.026C80.1244 127.111 79.827 127.154 79.4871 127.239C78.7224 127.408 77.9152 127.578 77.1505 127.748C76.9806 127.791 76.8531 127.791 76.6832 127.833C76.4283 127.876 76.1309 127.918 75.876 127.961C75.4937 128.003 75.1538 128.088 74.7714 128.131C74.6015 128.173 74.4316 128.173 74.2616 128.216C74.0492 128.258 73.7943 128.301 73.5394 128.301C72.8597 128.386 72.1374 128.471 71.4577 128.556C71.2453 128.598 70.9904 128.598 70.778 128.64H70.7355C70.4381 128.683 70.1407 128.683 69.8433 128.725C69.5459 128.768 69.2486 128.768 68.9512 128.768C68.7812 128.768 68.5688 128.81 68.3989 128.81C68.059 128.81 67.7616 128.853 67.4642 128.853C67.0394 128.853 66.6571 128.895 66.2322 128.895C65.8074 128.895 65.425 128.895 65.0002 128.895C64.7028 128.895 64.4054 128.895 64.108 128.895C46.1799 128.64 30.0786 121.036 18.5656 108.971C18.5656 108.971 18.5656 108.928 18.5231 108.928C17.2486 107.781 18.3531 101.663 23.4937 97.7973C29.9512 92.9117 45.4152 89.8529 45.4152 89.8529C45.4152 89.8529 51.4054 88.8758 73.6244 93.5065C86.6244 96.2255 96.5231 100.176 102.046 110.882C103.193 113.091 104.34 116.49 100.304 118.274Z" fill="#FBFBFB"/>
<path d="M73.7518 93.0392C81.9087 94.696 90.6178 96.4804 97.3302 101.876C99.5819 103.703 101.069 106.379 102.301 108.971C102.896 110.245 103.49 111.562 103.958 112.964C104.213 113.899 104.595 114.961 104.383 116.065C104.34 116.363 104.085 116.745 103.873 116.957C102.896 117.935 101.834 118.529 100.771 119.294C94.5263 123.627 87.3466 126.686 79.9119 128.301C63.3433 131.912 45.4152 129.108 30.8433 120.399C26.0002 117.467 21.5394 113.899 17.7159 109.693C17.291 109.183 17.291 108.333 17.291 107.781C17.3335 106.506 17.6734 105.274 18.0982 104.127C19.1178 101.493 20.4348 98.8594 22.6864 97.0326C24.3008 95.9281 26.0426 94.9934 27.827 94.2287C33.4348 91.8496 39.34 90.1928 45.4152 89.513C45.925 89.4705 46.01 90.1928 45.5002 90.2777C39.6799 91.4673 33.9021 93.2516 28.5067 95.6732C26.5525 96.6503 24.4708 97.5 22.8989 99.0294C21.4119 100.644 20.3498 102.64 19.5002 104.68C18.9479 105.912 18.5655 107.866 18.7355 108.843C21.4119 112.029 24.5557 114.833 27.9544 117.255C46.5623 130.255 74.8139 131.105 94.6113 120.271C96.3956 119.294 98.1374 118.19 99.7943 117.042C100.601 116.49 101.451 116.023 102.088 115.386C102.131 115.343 102.088 115.386 102.088 115.428C102.088 115.471 102.046 115.513 102.046 115.513C102.088 115.003 101.918 114.323 101.706 113.644C100.941 111.18 99.7093 108.588 98.3923 106.337C96.3106 102.98 92.7845 100.856 89.2159 99.1568C86.7518 98.0098 84.1603 97.1176 81.5263 96.2679C78.8923 95.4183 76.2159 94.696 73.5394 94.0588C72.8596 93.8888 73.0721 92.9117 73.7518 93.0392Z" fill="#EF476F"/>
<path d="M38.6178 91.1698C40.1048 93.8038 45.7551 104.382 46.6473 113.729L51.9152 115.513C51.9152 115.513 47.9218 97.8398 40.7845 89.6404C40.7845 89.6404 39.9348 89.2581 38.8727 89.9803C38.5329 90.2777 38.3629 90.745 38.6178 91.1698Z" fill="#EF476F"/>
<path d="M83.8203 113.856C83.8203 113.856 84.0752 102.088 78.9772 94.3562C78.8497 94.1438 79.0197 93.8464 79.2746 93.8889C79.6144 93.9738 80.1242 94.1013 80.9314 94.4836C82.2909 95.1209 86.7092 101.876 87.0916 112.964C87.0916 112.922 84.2452 113.856 83.8203 113.856Z" fill="#EF476F"/>
<path d="M98.3497 102.81C96.1405 100.474 89.4706 96.9901 88.3235 97.075C88.366 97.16 88.366 97.2875 88.4085 97.4149C90.1928 103.83 88.7484 112.539 82.2484 113.984C75.4935 115.47 69.8431 115.683 56.2908 114.323C46.3497 113.346 37.0033 104.425 32.2451 95.5881C31.7778 94.696 31.2255 93.8038 30.6307 92.9966C30.2908 92.7417 29.6536 92.7842 29.1863 93.1665C27.9967 94.1437 26.4248 94.0587 26.4248 94.9933C26.4248 94.9933 17.4183 97.7973 14.2745 117.552C12.4902 128.725 9.98365 143.212 9.89868 148.14H106.634C105.954 141.513 106.634 111.987 98.3497 102.81Z" fill="#EF476F"/>
<path d="M97.5426 103.575C96.2681 102.3 94.6112 101.323 93.0393 100.389C91.5948 99.5391 89.8105 98.6044 88.3236 98.1796L89.3007 96.8201L89.3432 97.075C90.5328 102.046 90.2779 107.951 86.8367 112.029C85.6471 113.389 83.9053 114.366 82.121 114.663C78.8073 115.343 75.3661 115.725 71.9674 115.725C66.0197 115.683 60.1569 115.216 54.2942 114.408C50.1308 113.516 46.2648 111.434 42.9086 108.843C38.1929 105.189 34.5818 100.389 31.2256 95.5031C30.7582 94.8234 30.206 94.1861 29.6112 93.6338L29.8236 93.8887C29.9086 93.9737 29.9511 93.9312 29.9086 93.9312C29.9086 93.9312 29.8236 93.9312 29.7811 93.9737C29.7386 93.9737 29.7386 93.9737 29.6962 94.0587C29.0164 94.6534 27.9118 94.9508 27.2321 95.3332C27.2746 95.3332 27.3596 95.0783 27.3596 95.0358L26.5948 96.0554L26.4674 96.0979L26.2975 96.1828C20.4772 99.3266 17.6733 106.804 16.1439 112.921C14.6569 119.889 13.7648 127.068 12.5752 134.078C11.8955 138.751 11.0458 143.552 10.8334 148.183L9.72883 147.078H106.634L105.572 148.268C104.68 136.5 105.147 112.624 97.5426 103.575ZM99.1569 102.088C107.356 111.647 106.846 135.65 107.739 148.055C107.781 148.65 107.356 149.202 106.762 149.245C106.719 149.33 9.94125 149.202 9.89876 149.245C9.30399 149.245 8.79419 148.778 8.79419 148.183C8.87916 145.676 9.21903 143.255 9.51641 140.876C10.4935 133.738 11.6831 126.644 12.8301 119.549C13.5524 114.791 14.5295 109.905 16.4412 105.402C18.353 100.941 21.1994 96.2678 25.7877 94.1012C25.8726 94.0587 25.9576 94.0162 26.085 93.9737L25.3203 94.9933C25.2778 93.5064 26.8922 93.124 27.9118 92.6992C28.5916 92.3168 29.1439 91.7646 29.9935 91.7646C30.4184 91.7221 31.1831 91.892 31.5229 92.4018C32.1177 93.5913 32.6275 94.7809 33.1373 95.9704C33.987 97.8822 35.0916 99.6665 36.3661 101.323C40.9543 107.144 47.1569 112.242 54.5491 113.729C57.0131 114.153 59.5622 114.238 62.0262 114.451C68.6962 114.918 75.4086 115.003 81.9086 113.389C83.438 113.049 84.755 112.242 85.7321 111.052C88.621 107.399 88.621 102.046 87.3465 97.7123L87.2615 97.3724C87.0491 96.7351 87.5589 96.0129 88.2386 96.0129C89.4707 96.0554 90.4053 96.6502 91.5099 97.1175C94.2288 98.477 96.9053 99.9214 99.1569 102.088Z" fill="#EF476F"/>
<path d="M84.8401 118.572C77.8728 121.546 54.9741 122.225 43.3336 115.938C35.9839 111.987 31.2257 103.278 28.9316 99.9214C27.2322 97.3724 26.3826 94.9933 26.3826 94.9933C26.3826 94.0587 27.9969 94.1437 29.144 93.1665C29.6113 92.7842 30.2486 92.7417 30.5885 92.9966C31.1832 93.8463 31.7355 94.696 32.2028 95.5881C36.961 104.382 44.4806 113.219 56.2486 114.323C69.8009 115.598 75.4512 115.47 82.2061 113.984C88.7061 112.539 90.1505 103.83 88.3662 97.4149C88.3237 97.3299 88.3238 97.2025 88.2813 97.075C89.4283 96.9901 91.6375 97.2025 92.4447 99.2417C92.4872 99.2417 95.7584 113.941 84.8401 118.572Z" fill="#FBFBFB"/>
<path d="M85.0948 119.167C82.2909 120.314 79.3595 120.738 76.4281 121.078C73.4968 121.418 70.5654 121.546 67.634 121.546C60.2843 121.461 52.8072 120.781 45.8824 118.147C37.9804 115.3 32.8824 108.121 28.634 101.323C27.3595 99.4541 26.17 97.5423 25.4477 95.3757C25.2353 94.8234 25.5752 94.0587 26.0425 93.7188C26.6798 93.209 27.402 93.209 28.0393 92.9541C28.4641 92.8266 28.719 92.5717 29.1013 92.3593C29.7811 92.0619 30.5458 91.807 31.3955 92.1894C36.2811 102.853 44.3105 113.049 56.8857 113.941C65.2125 114.706 73.7092 115.555 81.951 113.644C85.2647 113.091 87.4314 110.117 88.1961 106.974C89.0458 103.787 88.7909 100.346 87.8987 97.2025C87.8138 96.9051 88.0262 96.6077 88.3236 96.6077C90.1504 96.4378 92.402 97.2449 93.0393 99.1567C93.7615 102.98 93.7615 106.889 92.6569 110.585C91.5523 114.366 88.7484 117.68 85.0948 119.167ZM84.585 117.977C87.9837 116.617 90.4902 113.729 91.6373 110.287C92.7843 106.804 92.9118 102.938 92.1896 99.3266C91.6798 97.9247 89.8955 97.3299 88.3661 97.5423L88.7909 96.9476C90.2353 102.385 89.9379 110.202 84.5425 113.474C83.7778 113.899 82.9281 114.196 82.0785 114.366C80.4216 114.706 78.7223 115.003 77.0654 115.216C70.3105 115.938 63.5131 115.385 56.8007 114.833C45.2876 114.238 36.4085 105.189 31.4804 95.4181C31.1406 94.6534 30.7582 93.9312 30.3759 93.1665L30.4608 93.2515C29.8236 92.8691 29.1438 93.7613 28.5491 93.9737C27.9968 94.2711 27.402 94.3985 26.9347 94.6959C26.8497 94.7809 26.8072 94.8659 26.8072 94.9933V94.8659C27.7843 97.5423 29.5687 99.9639 31.0981 102.343C34.9641 108.291 39.6373 114.281 46.5196 116.745C56.121 120.568 74.7288 121.503 84.585 117.977Z" fill="#EF476F"/>
<path d="M77.7448 104.34C76.8527 108.716 71.0749 111.35 61.3461 107.399C51.235 103.32 46.8592 93.5915 45.7546 90.7026C51.7448 79.4869 47.5814 71.7124 47.5814 71.7124C61.3886 70.5229 73.454 86.6667 73.454 86.6667L75.3233 94.6536C75.4932 95.3333 75.8331 95.9281 76.3429 96.353C77.235 97.9249 78.2971 101.536 77.7448 104.34Z" fill="#FBFBFB"/>
<path d="M45.5424 90.8302C46.3496 89.5981 46.8594 88.1537 47.1992 86.7517C47.8365 83.8204 48.0489 80.8465 48.0914 77.8726V76.7681C47.9639 75.6635 47.5816 74.5164 47.1568 73.4968C46.6045 72.1373 48.6012 71.2877 49.2385 72.6472C49.3234 72.8171 49.3234 73.1145 49.3234 73.2844C49.4509 79.0622 49.7058 86.4968 46.0522 91.2975C45.7973 91.5524 45.2875 91.17 45.5424 90.8302Z" fill="#EF476F"/>
<path d="M73.9214 86.5818C74.5587 86.9642 74.7711 87.474 74.856 87.9838C75.1109 89.0034 75.026 90.108 75.2809 91.1701C75.4933 92.1897 76.1305 93.1668 76.3005 94.2289C76.5129 95.3335 77.1502 97.6701 77.4051 98.8171C77.49 99.072 77.3201 99.3694 77.0227 99.4119C76.8528 99.4544 76.7253 99.4119 76.5979 99.3269C76.0456 98.8596 75.7907 98.3923 75.4508 97.7975C74.8985 96.7779 74.5162 95.8433 74.1763 94.6962C73.8789 93.6766 74.0064 92.572 73.7515 91.5099C73.539 90.4903 72.9443 89.5132 72.7319 88.4511C72.6044 87.9413 72.5619 87.389 72.9443 86.7518C73.1992 86.4968 73.624 86.4119 73.9214 86.5818Z" fill="#EF476F"/>
<path d="M76.9804 97.7975C68.866 97.3726 62.2385 94.8236 55.781 83.3105C61.2189 88.1112 67.634 89.938 74.3889 90.7877L75.281 94.6962C75.4509 95.3759 76.4705 97.3726 76.9804 97.7975Z" fill="#EF476F"/>
<path d="M76.6405 96.2255C78.0849 98.9445 78.9346 102.343 78.0424 105.36C77.3627 107.484 75.4085 109.056 73.2843 109.65C68.3562 110.967 62.6634 108.886 58.2875 106.549C52.8921 103.533 48.8987 98.4772 46.3496 92.9543C46.1797 92.5295 46.7745 92.1896 47.0294 92.6144C47.9215 94.3987 48.9411 96.1406 50.0882 97.7125C51.2353 99.3268 52.5523 100.814 54.0392 102.131C58.3725 106.039 64.2353 108.461 70.098 108.461C76.1307 108.291 78.4248 105.105 77.0228 99.2419C76.8104 98.3072 76.4706 97.3301 76.0032 96.5229C75.7483 96.183 76.3856 95.8007 76.6405 96.2255Z" fill="#EF476F"/>
<path d="M93.0817 45.2026C93.8464 48.7712 91.2974 52.5947 91.2974 62.1111C91.2974 71.8398 89.513 82.4183 82.1634 89.7679C75.8333 96.098 68.5686 95.8431 60.0294 89.1732C58.8398 88.2385 54.6764 85.0947 53.6143 84.0326C52.3823 82.8006 51.7026 81.9085 51.1078 80.9738C50.598 80.1241 50.7255 75.196 50.0032 74.049C48.134 70.9477 47.7516 74.3039 45.33 71.5849C41.9738 67.9313 37.9379 60.5817 39.9346 47.5817C43.1634 26.5098 59.8594 24.0457 72.2222 26.3823C84.6699 28.7614 91.0425 35.8137 93.0817 45.2026Z" fill="#FBFBFB"/>
<path d="M47.4541 75.366C46.477 73.7516 45.245 72.3072 44.0979 70.8202C42.9509 69.2484 42.0162 67.5915 41.2515 65.8072C36.9182 55.3137 37.5554 41.5915 45.245 32.7549C50.513 26.7222 58.8398 24.7255 66.4868 25.1503C74.1339 25.6176 82.0783 27.5719 87.7286 33.0948C90.9999 36.281 93.0816 40.5294 94.0162 44.9477C94.3136 46.3497 94.1012 47.8791 93.7613 49.1961C92.7842 52.8921 91.8496 56.4183 91.7646 60.2418C91.8071 65.9346 91.6371 71.7549 89.9803 77.2353C88.7907 80.8889 87.3888 84.5425 85.1796 87.7287C82.8855 90.9575 79.4443 93.549 75.4933 94.3137C67.5489 95.9281 60.1143 90.915 54.8463 85.4771C54.6339 85.2222 54.9313 84.9248 55.1862 85.0948C58.2025 87.3889 61.3038 89.5131 64.66 90.9575C74.3463 95.4183 82.3757 91.2974 86.6241 81.951C90.1927 75.1536 91.2123 67.8039 90.9149 60.1993C90.9149 58.2876 90.9999 56.3758 91.2548 54.464C91.5097 51.7026 92.4443 48.9412 92.4018 46.2222C91.6796 41.8039 89.6404 37.5555 86.5816 34.2843C79.3169 26.5948 65.3822 24.3431 55.611 27.8268C44.0979 31.9052 40.9966 43.5033 40.3594 54.5915C39.9345 61.2189 41.8888 67.7189 46.9018 72.2647L48.8986 74.3464C49.5783 75.281 48.1339 76.3856 47.4541 75.366Z" fill="#EF476F"/>
<path d="M52.4672 61.8561C52.4672 61.8561 51.1502 55.4836 44.9476 56.2483C39.5946 56.928 37.7254 69.7581 49.8757 73.3267" fill="#FBFBFB"/>
<path d="M49.3235 67.7614C48.3464 67.2091 47.6666 66.2745 47.6242 65.1274C47.6666 64.2777 47.7941 63.3006 47.5817 62.4509C47.4542 61.6438 46.6046 61.4313 45.9673 61.4738C45.2876 61.6013 44.8627 62.4509 44.7353 63.1307C44.7353 63.1732 44.6928 63.3006 44.6928 63.3431C44.6503 63.5555 44.3104 63.5555 44.2255 63.3431C43.6732 61.6862 44.9052 59.8594 46.6895 60.0719C49.1961 60.2418 49.5359 62.8758 49.0686 64.8725C48.8137 65.7222 49.1536 66.4869 49.6209 67.2091L49.7059 67.3366C49.9183 67.5915 49.5784 67.9313 49.3235 67.7614Z" fill="#EF476F"/>
<path d="M83.3103 57.3529C83.9476 60.3693 85.1371 63.1732 86.6241 65.8072C87.9411 69.0359 84.5424 72.0947 81.526 71.9673C81.1862 71.9673 81.1437 71.5 81.4411 71.415C83.3528 70.8202 85.0947 69.5457 85.392 67.5915C85.5195 66.9967 85.3496 66.4869 85.0522 65.9771C83.6502 63.3431 82.8005 60.3268 83.013 57.3529C83.013 57.1405 83.3103 57.1405 83.3103 57.3529Z" fill="#EF476F"/>
<path d="M52.255 61.8986C51.2779 59.3921 49.1537 57.013 46.3073 57.0555C46.0524 57.013 45.6276 57.0979 45.3727 57.0979C44.6504 57.1404 44.0557 57.3953 43.5034 57.9051C40.7844 60.6241 41.2517 65.4248 43.4609 68.4411C44.2256 69.5032 45.2027 70.4378 46.3073 71.2025C47.4119 71.9672 48.6439 72.562 49.9609 73.0718C50.2583 73.1568 50.1308 73.6241 49.8334 73.5816C46.987 72.9868 44.2681 71.5849 42.3988 69.2483C39.5099 65.7646 38.9151 59.9444 42.3563 56.5457C43.121 55.8659 44.1831 55.3561 45.2452 55.3561C45.5851 55.3561 46.0949 55.2712 46.4348 55.3561C48.2191 55.4411 49.9184 56.3332 51.023 57.7352C52.0001 58.9247 52.5524 60.3692 52.7223 61.8136C52.7223 62.0685 52.34 62.1535 52.255 61.8986Z" fill="#EF476F"/>
<path d="M79.1043 76.0457C79.1468 76.7255 78.637 77.915 77.7024 78.7647C72.9017 75.8333 70.7351 77.3627 70.7351 77.3627C69.0357 74.7712 69.4181 71.2451 73.539 73.9215C76.3854 75.7908 78.1697 76.0882 79.1043 76.0457Z" fill="#EF476F"/>
<path d="M77.6599 78.8071C76.6403 79.6993 75.1109 80.2516 73.0292 79.4019C72.0521 79.0195 71.2874 78.2548 70.6926 77.4051C70.7351 77.4051 72.8593 75.8757 77.6599 78.8071Z" fill="#FBFBFB"/>
<path d="M79.9115 75.9183C79.9115 75.9183 78.1272 76.8954 73.539 73.964C68.0586 70.4379 69.1632 77.83 73.0292 79.4019C77.0651 81.0588 79.1468 77.4477 79.1043 76.0882" stroke="#EF476F" stroke-width="0.3" stroke-miterlimit="10" stroke-linecap="round" stroke-linejoin="round"/>
<path d="M70.7354 77.4051C70.7354 77.4051 72.902 75.8757 77.7027 78.8071" stroke="#EF476F" stroke-width="0.3" stroke-miterlimit="10" stroke-linecap="round" stroke-linejoin="round"/>
<path d="M74.0064 51.8301C74.941 51.7451 75.4083 50.6405 74.8985 49.7908C74.6011 49.366 74.2188 48.9836 73.6665 48.7712C72.0521 48.2614 66.7842 49.4085 64.49 52.0425C62.4508 54.464 69.758 52.2124 74.0064 51.8301Z" fill="#EF476F"/>
<path d="M85.2221 52.5098C84.4998 52.2974 84.2874 51.2353 84.8822 50.5556C85.1796 50.2157 85.6044 49.9183 86.0717 49.8333C87.5162 49.5784 90.8299 50.8954 91.7645 53.402C92.6142 55.5686 88.6632 53.3595 85.2221 52.5098Z" fill="#EF476F"/>
<path d="M67.4641 61.6864C66.4445 61.6439 65.6798 60.7942 65.7647 59.7746L65.8072 58.5851C65.8497 57.5655 66.6994 56.8008 67.719 56.8857C68.7386 56.9282 69.5033 57.7779 69.4183 58.7975L69.3759 59.987C69.3334 60.9642 68.4837 61.7289 67.4641 61.6864Z" fill="#EF476F"/>
<path d="M85.3496 62.3235C84.4149 62.281 83.6927 61.4739 83.7352 60.5392L83.7777 59.4346C83.8201 58.5 84.6273 57.7778 85.562 57.8203C86.4966 57.8627 87.2188 58.6699 87.1764 59.6046L87.1339 60.7091C87.0914 61.6438 86.2842 62.366 85.3496 62.3235Z" fill="#EF476F"/>
<path d="M71.2874 59.3922C69.8854 58.4576 68.356 57.8203 66.6566 58.1602C66.1043 58.2451 65.5521 58.4151 65.2122 58.7974C65.0847 58.9674 64.7874 58.9249 64.7874 58.67C64.8298 57.8203 65.5521 57.268 66.2318 56.9281C67.5488 56.2484 69.3756 56.3759 70.5651 57.268C70.99 57.5229 72.4344 59.0948 71.6697 59.4347C71.4998 59.5196 71.4148 59.4772 71.2874 59.3922Z" fill="#EF476F"/>
<path d="M83.4375 59.6047C83.4375 57.8203 85.6467 57.1831 87.0061 57.8203C87.7708 58.1602 88.3231 58.8399 88.5355 59.6471C88.6205 59.902 88.2382 60.1145 88.0682 59.902C87.346 59.0524 86.114 58.6275 85.1368 59.1373C84.8395 59.3073 84.797 59.4347 84.712 59.6047C84.712 60.4543 83.48 60.4118 83.4375 59.6047Z" fill="#EF476F"/>
<path d="M93.1999 57.3952C93.2424 57.1828 93.2849 56.9704 93.2849 56.7579C93.7097 54.0815 94.0071 51.6174 94.177 49.2808C94.5169 44.5227 93.6248 35.941 86.7849 30.8004C86.1901 30.3331 85.5529 29.9083 84.8306 29.5259C84.2359 29.1861 83.5986 28.8887 82.9614 28.5913C77.396 26.2122 68.4319 23.3658 59.5529 24.8952C56.1542 25.4475 52.7555 26.6795 49.5692 28.7612C49.5267 28.7612 49.5267 28.8037 49.5267 28.8037C41.7947 33.9017 39.0757 41.9736 37.6313 49.5782C37.164 51.9998 36.8241 54.4213 36.5267 56.6305C36.3568 57.7776 36.1868 58.8821 36.0169 59.9017C35.3797 63.7677 33.2555 67.2089 31.0038 69.9279C30.8764 70.0553 30.7489 70.2253 30.6215 70.3527C28.7947 72.4344 26.9679 74.0913 25.6934 75.0684C25.6084 75.1109 25.5234 75.1959 25.481 75.2383C28.2849 84.0749 38.9908 90.7024 48.8895 92.6991C50.3339 86.3691 51.311 79.954 50.079 73.3691C49.7391 73.2416 49.5692 73.1142 49.5692 73.0292C37.8437 69.3331 39.713 56.7579 45.0234 56.0782C46.9352 55.8233 48.3372 56.2906 49.4417 56.9704C50.9287 58.0749 52.543 60.8364 52.543 61.6436C52.628 59.7743 53.4352 57.1828 54.4123 57.0978C55.4319 57.0128 56.4515 56.8004 57.4287 56.4181C62.3143 54.7187 66.7751 50.1305 70.7261 46.0521C76.164 40.4442 80.5823 35.6861 83.7261 40.4017C83.896 40.6566 84.0659 40.9115 84.1934 41.1664C87.9319 41.0815 89.6738 43.2481 90.5659 45.4998C90.5659 45.4998 90.5659 45.4998 90.5659 45.5423C91.2882 47.454 91.3731 49.4083 91.4581 49.9181C91.4581 50.003 91.4581 50.0455 91.5006 50.0455C91.4156 51.7449 91.2032 54.6338 91.1607 58.3723C91.1607 60.0717 91.3306 63.4704 91.2032 65.4246C91.1607 66.0194 91.1182 66.6142 91.0757 67.1664C91.0333 67.4638 91.0333 67.7612 90.9908 68.0161C90.9483 68.271 90.9483 68.5684 90.9058 68.8658C90.8633 69.2906 90.8208 69.7155 90.7784 70.1828C90.7359 70.5651 90.6934 70.9475 90.6509 71.3298V71.3723C90.6084 71.6697 90.5659 71.9246 90.5234 72.1795C89.8862 75.5782 88.9091 79.1893 87.5071 81.356C84.7032 85.7318 82.494 89.4279 78.4581 91.2972C74.4646 93.124 69.9189 93.5063 69.9189 93.5063C69.9189 93.5063 71.1934 94.3135 74.2097 94.4834C77.1836 94.6534 79.3927 93.7612 81.6019 94.1436C86.3176 94.9508 94.6019 94.9508 94.6019 94.9508C100.804 78.637 90.311 77.8723 93.1999 57.3952Z" fill="#EF476F"/>
<path d="M60.1145 70.098C61.304 69.4608 62.4511 68.781 63.7681 68.4412C63.8955 68.4412 63.9805 68.3987 64.2354 68.4836C65.1275 69.1634 62.536 70.8627 62.0687 71.2876C62.1962 71.1176 62.1537 70.8202 61.9413 70.7353C61.8988 70.7353 61.8988 70.6928 61.8563 70.6928C61.7713 70.6928 61.7713 70.6928 61.7713 70.6928C62.8334 70.3104 63.8955 69.8856 64.9151 69.3758C65.5099 69.1209 66.3171 68.5686 66.9543 68.5261C67.2092 68.5261 67.5066 68.781 67.4641 69.0359C67.4217 69.3758 67.3367 69.5033 67.2517 69.7157C67.1668 69.8856 66.9968 70.1405 66.9543 70.3104C66.9543 70.3529 66.9119 70.268 66.9119 70.268C66.9119 70.3104 67.1668 70.3104 67.2092 70.268C67.889 70.183 68.6112 69.9281 69.2909 69.6732C69.4184 69.6307 69.5034 69.8006 69.3759 69.8856C68.6537 70.3529 67.889 70.8627 66.9543 70.9477C66.3596 70.9902 66.0622 70.4379 66.2746 69.9281C66.3596 69.6307 66.572 69.2908 66.6569 69.0359C66.6569 69.1209 66.7419 69.2484 66.8269 69.2908C66.9119 69.3333 66.9543 69.2908 66.9119 69.3333C66.487 69.4608 65.6373 69.9281 65.255 70.098C64.1504 70.6078 63.0883 71.0751 61.8988 71.415C61.8138 71.415 61.8138 71.4575 61.6864 71.415C61.3465 71.3725 61.2615 70.9477 61.5164 70.7353C62.0262 70.3104 62.621 69.9706 63.0883 69.5457C63.3432 69.3333 63.6406 69.0359 63.8105 68.781C63.8105 68.8235 63.853 68.9085 63.8955 68.951C63.5132 68.9935 62.7485 69.2059 62.2811 69.4183C61.6014 69.6732 60.8792 69.9706 60.1994 70.268C60.1145 70.3529 59.987 70.1405 60.1145 70.098Z" fill="#EF476F"/>
<path d="M87.644 70.098C88.0263 69.6732 89.6407 67.634 90.0656 68.696C90.0656 68.781 90.0656 68.866 90.0656 68.9085C89.8956 69.7581 89.3433 70.4804 88.9185 71.2026C89.0035 70.9902 88.8335 70.6928 88.6211 70.6503C88.5361 70.6503 88.4937 70.6503 88.4512 70.6503C88.4087 70.6503 88.4512 70.6503 88.4937 70.6078C89.3433 70.0555 89.9806 69.3758 90.8303 68.781C91.0002 68.696 91.2126 68.5686 91.425 68.696C91.6375 68.866 91.595 69.1209 91.51 69.2908C91.425 69.5032 91.3401 69.6732 91.2551 69.8856C91.2126 69.9281 91.1701 69.9706 91.0852 69.9281C91.0427 69.9281 91.0427 69.8856 91.0427 69.8431C91.0427 69.7581 91.0427 69.2059 91.0427 69.1209C91.0002 69.0359 91.0427 69.0784 91.0427 69.1209C91.0427 69.1634 91.1276 69.2483 91.2126 69.2483C91.2551 69.2483 91.3401 69.2483 91.3401 69.2483C90.6178 70.098 89.7682 70.9052 88.791 71.4575C88.4937 71.5849 88.1538 71.33 88.1963 70.9902C88.1963 70.9477 88.2388 70.8627 88.2812 70.8202C88.5786 70.3954 88.9185 69.9706 89.1734 69.5457C89.3008 69.3333 89.4708 69.0359 89.5133 68.8235C89.5133 68.9085 89.6832 69.0359 89.7257 68.9934C89.0459 69.2483 88.4512 69.8006 87.8564 70.2255C87.6865 70.3529 87.559 70.183 87.644 70.098Z" fill="#EF476F"/>
<path d="M122.438 35.8137C148.225 85.4771 102.895 141.513 48.8562 127.833C24.598 121.801 5.09803 100.771 1.06208 76.0882C-3.52615 51.5326 7.56208 25.1503 28.2941 11.2581C56.7157 -8.28436 96.098 -1.78436 116.448 26.1699C116.575 26.2973 116.533 26.5098 116.363 26.6372C116.235 26.7647 116.023 26.7222 115.895 26.5522C113.091 22.9411 109.905 19.6699 106.422 16.7385C100.686 11.8529 93.9738 8.02937 86.8791 5.43787C50.768 -7.6471 11.1307 14.1045 3.22875 51.8725C-5.69282 94.1862 30.2908 133.144 73.1993 127.323C106.294 123.16 130.892 92.6143 128.173 59.3921C127.578 51.3627 125.454 43.4183 121.928 36.1111C121.843 35.9836 121.928 35.8137 122.056 35.7287C122.183 35.6437 122.353 35.6862 122.438 35.8137Z" fill="#EF476F"/>
</g>
</svg>
