<svg width="130" height="130" viewBox="0 0 130 130" fill="none" xmlns="http://www.w3.org/2000/svg">
<mask id="mask0_432_708" style="mask-type:alpha" maskUnits="userSpaceOnUse" x="0" y="0" width="130" height="130">
<circle cx="64.7869" cy="64.7869" r="64.7869" fill="#D9D9D9"/>
</mask>
<g mask="url(#mask0_432_708)">
<path d="M100.304 118.274C100.007 118.487 99.6669 118.699 99.3695 118.912C99.0296 119.124 98.7322 119.337 98.3923 119.506C98.095 119.676 97.8401 119.846 97.5427 120.016C97.5002 120.059 97.4577 120.059 97.4152 120.101C96.4381 120.696 95.4185 121.248 94.3989 121.758C94.1015 121.928 93.7616 122.098 93.4642 122.225C93.4642 122.225 93.4218 122.268 93.3793 122.268C93.0394 122.438 92.6995 122.608 92.3597 122.778C91.6799 123.118 90.9577 123.415 90.278 123.712C89.9381 123.882 89.5557 124.01 89.2159 124.137C88.876 124.265 88.4937 124.435 88.1538 124.562C87.8139 124.69 87.4316 124.859 87.0917 124.987C87.0917 124.987 87.0917 124.987 87.0492 124.987C86.7093 125.114 86.327 125.242 85.9871 125.369C85.2224 125.624 84.4152 125.879 83.6505 126.134C83.3956 126.219 83.0982 126.304 82.8433 126.389C82.0361 126.644 81.2289 126.856 80.4218 127.026C80.1244 127.111 79.827 127.154 79.4871 127.239C78.7224 127.408 77.9152 127.578 77.1505 127.748C76.9806 127.791 76.8531 127.791 76.6832 127.833C76.4283 127.876 76.1309 127.918 75.876 127.961C75.4937 128.003 75.1538 128.088 74.7714 128.131C74.6015 128.173 74.4316 128.173 74.2616 128.216C74.0492 128.258 73.7943 128.301 73.5394 128.301C72.8597 128.386 72.1374 128.471 71.4577 128.556C71.2453 128.598 70.9904 128.598 70.778 128.64H70.7355C70.4381 128.683 70.1407 128.683 69.8433 128.725C69.5459 128.768 69.2486 128.768 68.9512 128.768C68.7812 128.768 68.5688 128.81 68.3989 128.81C68.059 128.81 67.7616 128.853 67.4642 128.853C67.0394 128.853 66.6571 128.895 66.2322 128.895C65.8074 128.895 65.425 128.895 65.0002 128.895C64.7028 128.895 64.4054 128.895 64.108 128.895C46.1799 128.64 30.0786 121.036 18.5656 108.971C18.5656 108.971 18.5656 108.928 18.5231 108.928C17.2486 107.781 18.3531 101.663 23.4937 97.7973C29.9512 92.9117 45.4152 89.8529 45.4152 89.8529C45.4152 89.8529 51.4054 88.8758 73.6244 93.5065C86.6244 96.2255 96.5231 100.176 102.046 110.882C103.193 113.091 104.34 116.49 100.304 118.274Z" fill="#FBFBFB"/>
<path d="M73.7518 93.0392C81.9087 94.696 90.6178 96.4804 97.3302 101.876C99.5819 103.703 101.069 106.379 102.301 108.971C102.896 110.245 103.49 111.562 103.958 112.964C104.213 113.899 104.595 114.961 104.383 116.065C104.34 116.363 104.085 116.745 103.873 116.957C102.896 117.935 101.834 118.529 100.771 119.294C94.5263 123.627 87.3466 126.686 79.9119 128.301C63.3433 131.912 45.4152 129.108 30.8433 120.399C26.0002 117.467 21.5394 113.899 17.7159 109.693C17.291 109.183 17.291 108.333 17.291 107.781C17.3335 106.506 17.6734 105.274 18.0982 104.127C19.1178 101.493 20.4348 98.8594 22.6864 97.0326C24.3008 95.9281 26.0426 94.9934 27.827 94.2287C33.4348 91.8496 39.34 90.1928 45.4152 89.513C45.925 89.4705 46.01 90.1928 45.5002 90.2777C39.6799 91.4673 33.9021 93.2516 28.5067 95.6732C26.5525 96.6503 24.4708 97.5 22.8989 99.0294C21.4119 100.644 20.3498 102.64 19.5002 104.68C18.9479 105.912 18.5655 107.866 18.7355 108.843C21.4119 112.029 24.5557 114.833 27.9544 117.255C46.5623 130.255 74.8139 131.105 94.6113 120.271C96.3956 119.294 98.1374 118.19 99.7943 117.042C100.601 116.49 101.451 116.023 102.088 115.386C102.131 115.343 102.088 115.386 102.088 115.428C102.088 115.471 102.046 115.513 102.046 115.513C102.088 115.003 101.918 114.323 101.706 113.644C100.941 111.18 99.7093 108.588 98.3923 106.337C96.3106 102.98 92.7845 100.856 89.2159 99.1568C86.7518 98.0098 84.1603 97.1176 81.5263 96.2679C78.8923 95.4183 76.2159 94.696 73.5394 94.0588C72.8596 93.8888 73.0721 92.9117 73.7518 93.0392Z" fill="#26547C"/>
<path d="M114.409 144.614H6.96753C6.96753 144.614 8.24204 126.091 14.6996 112.029C16.9937 107.059 18.778 99.8365 22.9839 96.5652C27.827 92.8267 37.3858 90.4901 40.7845 89.8103C43.2911 89.3005 43.6309 89.7679 45.3728 89.3005C45.3728 89.513 45.4152 89.6829 45.4152 89.8953C45.4152 89.8953 50.0035 103.533 61.9414 108.376C71.6702 112.327 77.4479 109.693 78.3401 105.317C78.8924 102.513 77.1505 97.9247 76.2584 96.4378C75.7486 96.013 75.4087 95.3757 75.2388 94.7384L74.8989 93.3365C75.7061 93.1666 76.4708 92.9541 77.2355 92.6992C77.4904 92.6143 77.7028 92.5293 77.9577 92.4443C84.1179 94.1862 91.595 97.33 98.1375 102.301C101.706 105.019 104.68 112.029 108.334 123.882C112.624 137.519 114.409 144.614 114.409 144.614Z" fill="#26547C"/>
<path d="M81.824 103.108C81.6965 101.918 81.4841 100.856 81.2717 99.9214C80.3795 95.758 77.703 92.1044 77.703 92.1044C77.703 92.1044 70.9906 87.4737 60.6246 86.2417C50.2586 85.0096 45.203 86.2417 45.203 86.2417C44.4383 86.4966 43.5037 87.0064 42.654 87.4737C41.1246 88.3658 39.8926 89.6404 39.1279 91.2122C39.1279 91.2547 39.0854 91.2547 39.0854 91.2972C37.9808 94.4835 43.6736 106.251 58.3305 112.836C73.4547 119.634 82.8436 111.689 81.824 103.108Z" fill="#26547C"/>
<path d="M28.0396 169.382C27.4873 156.935 27.2324 143.807 27.0625 131.317C26.9775 126.474 26.7651 121.588 27.9547 116.83C29.7815 108.886 35.3043 101.451 43.2063 98.8596L42.9089 99.157C43.8011 96.9053 44.7782 94.3988 46.9449 93.0818C47.0298 93.0393 47.0723 93.1668 47.0298 93.2092C45.5429 94.2288 44.7357 95.9707 44.056 97.6275C43.8011 98.1798 43.6736 98.8596 43.4187 99.3694C40.4449 100.474 37.8109 102.386 35.6442 104.637C33.4775 106.931 31.7357 109.65 30.5886 112.582C29.1017 116.278 28.4645 120.229 28.337 124.18C28.252 139.092 28.6769 154.853 28.0396 169.382Z" fill="#FBFBFB"/>
<path d="M46.9447 169.382C46.095 161.608 45.5852 153.621 45.5002 145.804C45.4153 138.624 45.6277 131.232 46.4774 124.095C46.9447 119.931 48.4316 110.415 51.5329 107.653L51.8728 107.399C52.0852 107.314 52.1277 107.229 52.4251 107.186L52.0002 107.611C52.2127 105.997 52.8074 104.467 53.6571 103.108C53.9545 102.683 54.2519 102.258 54.5917 101.833C54.6342 101.791 54.7617 101.833 54.6767 101.918C54.3793 102.343 54.0819 102.768 53.8695 103.235C53.1473 104.595 52.6375 106.082 52.51 107.611C52.51 107.653 52.4676 107.653 52.4676 107.696C52.2127 107.781 51.9153 107.993 51.7028 108.248C51.0656 108.928 50.6408 109.905 50.2584 110.755C49.6636 112.242 49.2388 113.856 48.8989 115.47C48.0493 119.591 47.5819 123.925 47.2421 128.131C46.7747 135.183 46.6048 142.66 46.6048 149.712L46.6473 153.663C46.6473 158.889 46.9022 164.157 47.0296 169.382C47.0721 169.425 46.9447 169.467 46.9447 169.382Z" fill="#FBFBFB"/>
<path d="M64.4053 169.382C64.4478 156.425 63.8955 143.425 63.853 130.467C63.8106 124.605 63.8106 118.572 63.938 112.709C64.3204 111.18 64.6177 109.565 64.7452 107.951C64.7877 107.441 64.7877 106.889 64.7452 106.337C64.7452 106.252 64.8726 106.252 64.8726 106.337C65.2125 108.461 64.9576 110.627 64.5328 112.752C64.7027 117.382 64.8726 122.183 64.9576 126.899C65.255 137.52 65.34 148.14 65.0851 158.761C65.0426 160.801 64.9151 163.817 64.7877 165.856C64.7027 167.046 64.5753 168.193 64.4903 169.382C64.4903 169.425 64.4478 169.425 64.4053 169.425V169.382Z" fill="#FBFBFB"/>
<path d="M84.2877 169.382C83.9054 159.569 83.6505 149.288 82.8008 139.516C82.291 133.314 81.4838 127.196 80.2942 121.121C79.572 117.467 78.6374 113.771 77.1505 110.33C76.8956 108.376 76.2583 106.252 74.7289 104.892C74.6864 104.85 74.6864 104.807 74.7289 104.807C74.7714 104.765 74.7714 104.765 74.8139 104.807C75.2387 105.105 75.621 105.487 75.9609 105.912C76.8956 107.144 77.4903 108.843 77.7027 110.245C79.4446 113.601 80.4217 117.255 81.3139 120.908C81.8661 123.288 82.3759 125.879 82.7583 128.258C83.3106 131.657 83.8204 135.99 84.0753 139.431C84.2877 141.513 84.4152 144.784 84.5426 146.908C84.7125 151.921 84.755 156.892 84.6701 161.905L84.4576 169.382C84.4576 169.425 84.4152 169.425 84.3727 169.425C84.3302 169.425 84.2877 169.382 84.2877 169.382Z" fill="#FBFBFB"/>
<path d="M100.262 169.34C101.324 157.699 100.899 145.889 99.242 134.333C98.8171 131.317 98.1799 128.173 97.5002 125.199C96.693 122.268 95.7158 119.294 94.3988 116.575C93.4642 114.493 92.2322 112.497 91.0001 110.585C89.3008 108.163 87.1341 105.657 84.7975 103.83C83.608 102.853 82.3335 101.918 80.974 101.238C80.2943 100.346 79.8694 99.4541 78.8923 98.6044C78.1276 97.8822 77.193 97.2874 76.1309 97.245C76.0884 97.245 76.0459 97.2025 76.0459 97.16C76.0459 97.1175 76.0884 97.1175 76.0884 97.1175C76.6407 97.075 77.193 97.245 77.7028 97.4574C79.1897 98.1796 80.2943 99.4966 81.1864 100.856C87.0917 103.618 91.7649 109.225 94.8662 115.003C96.0982 117.467 97.2028 120.016 97.9675 122.65L98.6472 124.902C100.686 133.314 101.494 141.98 101.621 150.604C101.664 156.892 101.324 163.18 100.347 169.382C100.347 169.425 100.304 169.425 100.262 169.425C100.262 169.425 100.262 169.382 100.262 169.34Z" fill="#FBFBFB"/>
<path d="M81.144 120.483C87.0918 120.696 91.5101 118.784 92.1898 112.369C92.2323 111.859 92.6146 111.477 93.082 111.392C95.6735 110.755 97.4153 108.461 97.9251 105.869C98.0525 105.444 98.095 104.892 98.18 104.467C98.2225 104 98.265 103.49 98.3074 102.98C98.3074 102.938 98.3499 102.938 98.3924 102.938C98.4349 102.938 98.4349 102.98 98.4349 102.98C98.5199 103.872 98.6048 105.062 98.5199 105.954C98.3499 108.97 96.3532 111.817 93.3369 112.624L93.4218 112.539C93.082 117.255 90.1931 120.696 85.3499 120.993C83.948 121.121 82.5035 120.993 81.1016 120.653C81.0591 120.653 81.0591 120.611 81.0591 120.568C81.0591 120.483 81.1016 120.483 81.144 120.483Z" fill="#FBFBFB"/>
<path d="M21.7942 100.899C22.2615 103.32 23.6635 105.699 25.7877 106.974C25.9576 107.101 26.34 107.271 26.5099 107.399C26.8922 107.569 27.3171 107.738 27.6994 107.866L28.5066 108.078C28.719 108.163 29.1014 108.206 29.3563 108.248L30.206 108.376C31.0556 108.503 32.3726 108.036 32.7975 109.013C35.6014 114.961 41.0818 119.464 47.9641 118.147C48.389 118.104 48.8138 118.274 48.9837 118.657C49.3661 119.252 49.8759 119.889 50.3432 120.441C52.7648 123.33 56.4184 125.454 60.2844 124.647C61.8138 124.35 63.3007 123.712 64.6602 122.863C64.7027 122.82 64.7452 122.863 64.7452 122.863C58.755 127.833 52.0426 125.199 47.9641 119.252L48.0916 119.294C46.3922 119.591 44.6504 119.676 42.9086 119.336C37.8105 118.402 33.902 114.069 31.8628 109.353L31.9478 109.395C31.0556 109.353 30.0785 109.31 29.1864 109.098C28.9315 109.055 28.5066 108.97 28.2942 108.885C27.7844 108.758 27.0197 108.461 26.5524 108.206L26.1275 107.993L25.7452 107.738C25.5752 107.611 25.1504 107.399 24.9805 107.229C23.0262 105.699 21.8792 103.278 21.6243 100.856C21.6243 100.814 21.6668 100.771 21.6668 100.771C21.7942 100.856 21.7942 100.856 21.7942 100.899Z" fill="#FBFBFB"/>
<path d="M79.6996 115.343C84.7976 113.984 87.3042 111.01 86.5395 105.657C86.497 105.317 86.5819 104.977 86.7944 104.765C88.1963 103.108 88.5787 100.856 88.3663 98.7319C88.3238 98.0521 88.0689 97.075 87.9414 96.3953C87.9414 96.3528 87.9414 96.3103 87.9839 96.3103C88.0264 96.3103 88.0264 96.3103 88.0689 96.3528C88.4087 97.075 88.7486 97.8397 88.961 98.6044C89.3859 100.176 89.3859 101.876 88.8761 103.405C88.6212 104.17 88.2388 104.934 87.729 105.572L87.7715 105.487C88.4937 109.31 87.2192 113.261 83.3532 114.748C82.2061 115.216 80.9741 115.47 79.7421 115.513C79.6146 115.47 79.6146 115.343 79.6996 115.343Z" fill="#FBFBFB"/>
<path d="M31.693 94.4411C31.0133 96.6502 31.778 99.1143 33.4349 100.686L33.6473 100.941L33.9022 101.153C34.412 101.578 35.0068 101.961 35.559 102.343L36.7486 102.98C37.0035 103.108 37.1734 103.363 37.2159 103.66C38.0656 106.846 40.6571 109.353 43.5885 110.712C45.4577 111.689 47.497 112.157 49.5362 112.539C50.1309 112.667 50.3009 113.219 50.7257 113.601C51.193 114.069 51.7028 114.536 52.2126 114.961C55.3139 117.595 59.4774 118.997 63.5558 118.444L64.6179 118.317C64.6604 118.317 64.7028 118.317 64.7028 118.359C64.7028 118.402 64.7028 118.402 64.6604 118.444C60.5394 119.719 55.9937 118.912 52.4251 116.448C51.363 115.725 49.876 114.493 49.2813 113.686C46.4349 113.219 43.546 112.369 41.1669 110.712C38.8728 109.183 36.6211 106.294 36.3238 103.787C35.6015 103.363 34.5394 102.683 33.9022 102.173C33.7747 102.088 33.2224 101.536 33.095 101.408C32.8826 101.153 32.5852 100.856 32.4153 100.559C31.1407 98.7744 30.7159 96.3528 31.6081 94.3136C31.6081 94.2711 31.6505 94.2711 31.693 94.2711C31.7355 94.3561 31.7355 94.3986 31.693 94.4411Z" fill="#FBFBFB"/>
<path d="M39.1278 91.2548C39.0428 93.209 39.765 95.1633 41.0395 96.6077C41.2944 96.9476 41.7193 97.3299 42.0591 97.6273C42.1866 97.7123 42.6114 98.0522 42.7389 98.1371C43.1637 98.477 43.9284 98.6469 43.9709 99.2417C44.0983 100.176 44.5657 101.153 45.1179 101.918C46.8598 104.467 49.8761 105.827 52.8075 106.676C53.0624 106.761 53.2323 106.889 53.3598 107.101C55.9513 110.372 60.2421 112.072 64.363 111.647C65.0853 111.689 65.7225 112.072 66.4872 112.199C68.1016 112.624 69.8859 112.836 71.5428 112.709C73.7519 112.624 75.7912 111.689 76.8957 109.778C77.1082 109.48 77.4055 109.438 77.6604 109.225C78.85 108.418 79.8271 107.314 80.4219 105.997C81.1866 104.425 81.0166 102.64 80.5918 101.026C80.6768 100.346 80.8042 99.5816 80.7617 98.8169C80.7193 96.6927 79.8696 94.611 78.5101 92.9541C78.4251 92.9116 78.5526 92.7842 78.5951 92.8691C80.7193 94.9508 81.6964 98.0521 81.2715 100.984C82.631 104.51 81.0591 108.376 77.7454 110.415C76.7258 112.412 74.0493 113.814 71.6702 113.899C69.3336 114.111 66.5297 113.601 64.533 112.921C59.9872 113.389 55.2291 111.435 52.4676 107.738L52.5101 107.781C51.5755 107.484 50.301 107.016 49.4513 106.591C49.2389 106.464 48.5591 106.124 48.3467 105.997C48.0918 105.827 47.5395 105.487 47.3271 105.317L46.6898 104.807C44.9905 103.405 43.631 101.493 43.3336 99.2842L43.3761 99.3691C43.0362 99.1142 42.6964 98.9018 42.399 98.6469L41.9317 98.2646L41.7193 98.0522C41.5068 97.8397 41.2944 97.5848 41.082 97.4149C40.6996 96.9476 40.3173 96.4378 40.0199 95.928C39.2552 94.526 38.8729 92.8691 39.0853 91.2548C39.0853 91.2123 39.1278 91.2123 39.1702 91.2123C39.0853 91.2123 39.1278 91.2123 39.1278 91.2548Z" fill="#FBFBFB"/>
<path d="M75.507 118.047C75.5212 116.827 74.5627 115.826 73.3662 115.813C72.1697 115.799 71.1883 116.776 71.1741 117.996C71.1599 119.216 72.1184 120.216 73.3149 120.23C74.5114 120.244 75.4928 119.267 75.507 118.047Z" fill="#FBFBFB"/>
<path d="M78 123.797C78.2974 126.049 76.8105 128.13 74.6863 128.385C72.5621 128.64 70.6079 127.068 70.3105 124.774C70.0131 122.523 71.3726 119.421 73.4968 119.124C75.6209 118.869 77.7026 121.503 78 123.797Z" fill="#FBFBFB"/>
<path d="M72.4769 121.078C71.3723 121.97 68.3985 122.055 67.2089 121.205C65.722 120.058 67.2939 116.277 68.3135 115.088C68.356 115.045 68.441 115.045 68.441 115.13L68.0586 117.594C67.9736 118.401 67.8037 119.251 67.8887 120.016C67.8887 120.186 68.0586 120.271 68.2285 120.313C69.3756 120.738 70.6076 120.865 71.8397 120.993C72.0096 120.993 72.307 121.035 72.4344 120.95C72.4344 120.993 72.4769 121.035 72.4769 121.078Z" fill="#FBFBFB"/>
<path d="M72.1373 123.585C70.5229 124.732 68.7386 125.241 66.7419 125.029C66.6144 125.029 66.3595 124.944 66.232 124.902C64.1928 124.222 63.5131 121.715 63.9379 119.804C63.9379 119.719 64.0229 119.676 64.0654 119.761C64.5327 121.248 65.17 123.415 66.9118 123.712C67.7615 123.839 68.6536 123.797 69.5033 123.712C70.353 123.627 71.2451 123.542 72.0948 123.372C72.1798 123.415 72.2222 123.5 72.1373 123.585C72.1798 123.542 72.1373 123.585 72.1373 123.585Z" fill="#FBFBFB"/>
<path d="M71.5425 125.666C70.6078 126.091 69.7582 126.431 69.0784 126.856C68.5686 127.196 68.2288 127.45 68.0163 128.003C67.7614 128.682 67.8039 129.49 67.8464 130.424C67.9314 131.274 68.0588 132.209 68.1013 133.228C68.1013 133.271 68.0163 133.313 67.9739 133.271C66.6144 131.104 65.3824 126.941 68.6961 125.921C69.5882 125.624 70.5654 125.539 71.5 125.581C71.6275 125.539 71.6275 125.666 71.5425 125.666Z" fill="#FBFBFB"/>
<path d="M72.6046 127.026C72.4347 128.13 72.0098 128.895 72.3497 129.745C72.9445 130.977 73.4543 132.251 73.4543 133.738C73.4543 133.781 73.3693 133.823 73.3693 133.781C72.987 133.271 72.6046 132.719 72.2223 132.166C71.7549 131.317 71.0327 130.467 71.0327 129.447C71.0752 128.428 71.7549 127.536 72.4772 126.898C72.6046 126.856 72.6471 126.941 72.6046 127.026Z" fill="#FBFBFB"/>
<path d="M75.0261 120.653C75.2385 120.441 75.7058 120.058 75.9607 119.846C76.6405 119.294 77.5751 118.699 78.2548 118.147C78.2973 118.104 78.3398 118.062 78.2973 118.147C78.2548 118.189 78.2123 118.274 78.1699 118.359C78.1274 118.487 78.0849 118.572 78.1274 118.699C77.745 117.17 77.2777 115.683 77.3627 114.026V113.983C77.3627 113.941 77.4476 113.898 77.4901 113.941C78.0424 115.045 78.5947 116.192 79.0195 117.34C79.1895 117.764 79.4019 118.232 79.4019 118.741C79.3594 118.954 79.1895 119.039 79.062 119.166C78.5522 119.549 77.9574 119.804 77.4052 120.058C77.1078 120.186 74.8986 121.121 74.9836 120.696C74.9836 120.653 75.0261 120.653 75.0261 120.653Z" fill="#FBFBFB"/>
<path d="M75.9183 122.947C77.4477 121.97 79.232 121.545 80.7614 120.908C81.1863 120.653 81.3987 120.228 81.6536 119.718C82.0359 119.039 82.3333 118.189 82.7582 117.297C82.7582 117.254 82.8006 117.254 82.8431 117.254C82.9706 118.571 82.8006 120.016 82.1209 121.205C81.3987 122.437 79.7843 122.522 78.5098 122.777C77.6176 122.905 76.768 123.032 75.8758 123.075C75.8333 123.075 75.8333 122.99 75.9183 122.947Z" fill="#FBFBFB"/>
<path d="M76.9802 124.816C80.2939 122.055 84.3299 124.222 83.6077 128.555C83.4377 129.575 83.0554 130.552 82.3332 131.359C82.2907 131.401 82.2057 131.359 82.2057 131.316C82.3332 130.849 82.4181 130.424 82.4606 129.957C82.8854 126.813 82.0782 124.137 78.3397 124.689C77.8724 124.731 77.405 124.816 76.9802 124.944C76.9377 124.986 76.8952 124.859 76.9802 124.816Z" fill="#FBFBFB"/>
<path d="M76.3857 126.431C77.8726 126.261 79.487 127.408 79.5295 129.065C79.4445 130.764 78.6798 132.294 77.2778 133.313C77.2353 133.356 77.1504 133.356 77.1504 133.271C77.5752 132.039 78.0001 130.807 78.2125 129.532C78.3824 128.895 78.2125 128.3 77.7876 127.79C77.4053 127.323 76.8955 126.898 76.3432 126.558C76.2582 126.473 76.3007 126.388 76.3857 126.431Z" fill="#FBFBFB"/>
<path d="M77.7451 104.34C76.8529 108.716 71.0751 111.35 61.3464 107.399C51.2353 103.32 46.8595 93.5914 45.7549 90.7025C51.7451 79.4868 47.5817 71.7123 47.5817 71.7123C61.3889 70.5228 73.4542 86.6666 73.4542 86.6666L75.3235 94.6535C75.4934 95.3332 75.8333 95.928 76.3431 96.3528C77.2353 97.9247 78.2974 101.536 77.7451 104.34Z" fill="#FBFBFB"/>
<path d="M45.5426 90.83C46.3498 89.598 46.8596 88.1536 47.1995 86.7516C47.8367 83.8202 48.0492 80.8464 48.0916 77.8725V76.7679C47.9642 75.6634 47.5818 74.5163 47.157 73.4967C46.6047 72.1372 48.6014 71.2876 49.2387 72.647C49.3237 72.817 49.3237 73.1144 49.3237 73.2843C49.4511 79.0621 49.706 86.4967 46.0524 91.2974C45.7975 91.5523 45.2877 91.1699 45.5426 90.83Z" fill="#26547C"/>
<path d="M73.9216 86.5817C74.5589 86.964 74.7713 87.4739 74.8563 87.9837C75.1112 89.0033 75.0262 90.1078 75.2811 91.1699C75.4935 92.1895 76.1308 93.1667 76.3007 94.2288C76.5131 95.3333 77.1504 97.6699 77.4053 98.817C77.4903 99.0719 77.3203 99.3693 77.0229 99.4118C76.853 99.4542 76.7256 99.4118 76.5981 99.3268C76.0458 98.8595 75.7909 98.3921 75.4511 97.7974C74.8988 96.7778 74.5164 95.8431 74.1765 94.6961C73.8792 93.6765 74.0066 92.5719 73.7517 91.5098C73.5393 90.4902 72.9445 89.5131 72.7321 88.451C72.6046 87.9412 72.5622 87.3889 72.9445 86.7516C73.1994 86.4967 73.6243 86.4118 73.9216 86.5817Z" fill="#26547C"/>
<path d="M76.9806 97.7974C68.8662 97.3725 62.2388 94.8235 55.7812 83.3104C61.2192 88.1111 67.6342 89.9379 74.3891 90.7875L75.2812 94.696C75.4512 95.3758 76.4708 97.3725 76.9806 97.7974Z" fill="#26547C"/>
<path d="M76.6407 96.2254C78.0852 98.9444 78.9349 102.343 78.0427 105.359C77.363 107.484 75.4087 109.055 73.2845 109.65C68.3564 110.967 62.6636 108.886 58.2878 106.549C52.8924 103.533 48.8989 98.477 46.3499 92.9542C46.1799 92.5293 46.7747 92.1895 47.0296 92.6143C47.9218 94.3986 48.9414 96.1404 50.0884 97.7123C51.2355 99.3267 52.5525 100.814 54.0394 102.131C58.3728 106.039 64.2355 108.461 70.0983 108.461C76.1309 108.291 78.4251 105.105 77.0231 99.2418C76.8107 98.3071 76.4708 97.33 76.0035 96.5228C75.7486 96.1829 76.3858 95.8006 76.6407 96.2254Z" fill="#26547C"/>
<path d="M93.0817 45.2027C93.8464 48.7713 94.2287 51.6602 92.147 61.1765C90.1078 70.6504 95.0784 72.6046 83.3104 87.7713C78.5098 93.9739 66.8692 92.2321 57.4379 85.8171C54.2516 83.6504 52.8921 78.085 50.513 74.1341C48.6438 71.0327 47.7941 74.2615 45.33 71.585C41.9738 67.9314 37.9379 60.5818 39.9346 47.5818C43.1634 26.5099 59.8594 24.0458 72.2222 26.3824C84.6699 28.7615 91.0425 35.8138 93.0817 45.2027Z" fill="#FBFBFB"/>
<path d="M47.4543 75.366C46.4772 73.7091 45.2026 72.2647 44.0131 70.7353C42.866 69.1634 41.9314 67.4216 41.1667 65.6372C36.1111 53.232 38.0654 35.7712 50.4706 28.464C55.6111 25.4902 61.8138 24.768 67.5915 25.2353C79.9543 26.1274 91.2974 31.8202 93.9739 44.9052C95.4183 50.683 93.4641 56.6307 92.3595 62.281C91.8497 65.085 92.2745 67.9738 92.2321 70.8627C92.1896 73.7941 91.3824 76.7255 90.2778 79.4444C89.5981 81.3137 88.4085 82.9706 87.1765 84.5C85.1373 86.964 83.0981 89.4706 80.5066 91.3823C79.9118 91.8072 78.8497 92.0196 78.1275 92.1046C76.1307 92.402 74.1765 92.4869 72.1798 92.3595C64.3628 92.0196 55.9935 88.2385 52.8497 80.6765C52.7223 80.3791 53.1471 80.1667 53.317 80.4216C57.3955 86.8791 64.8726 90.0653 72.3072 90.4902C74.6013 90.6176 76.9379 90.5752 79.1896 90.1078C80.2941 89.5555 81.2713 88.5784 82.2059 87.6863C84.5 85.3921 86.8366 82.9281 88.4935 80.1242C90.4902 76.3431 91.5948 72.2222 91.2549 67.9314C91.17 66.0196 91.1275 64.0229 91.5098 62.1111C91.8497 60.1993 92.2745 58.3725 92.5294 56.4183C92.7843 54.549 92.9118 52.6372 92.9118 50.768C92.6994 45.2876 90.9151 39.6372 87.4314 35.3889C79.7419 25.8301 61.5589 23.3235 51.3203 29.866C44.8628 33.8595 41.8464 41.3366 40.8693 48.6013C39.3824 57.3104 39.8072 65.8921 46.7321 72.2222L48.7713 74.3464C49.5785 75.281 48.134 76.3856 47.4543 75.366Z" fill="#26547C"/>
<path d="M52.4672 61.8562C52.4672 61.8562 51.1502 55.4837 44.9476 56.2484C39.5946 56.9281 37.7254 69.7582 49.8757 73.3268" fill="#FBFBFB"/>
<path d="M49.3235 67.7615C48.3464 67.2092 47.6667 66.2746 47.6242 65.1275C47.6667 64.2779 47.7941 63.3007 47.5817 62.4511C47.4542 61.6439 46.6046 61.4315 45.9673 61.4739C45.2876 61.6014 44.8627 62.4511 44.7353 63.1308C44.7353 63.1733 44.6928 63.3007 44.6928 63.3432C44.6503 63.5556 44.3104 63.5556 44.2255 63.3432C43.6732 61.6864 44.9052 59.8596 46.6895 60.072C49.1961 60.2419 49.5359 62.8759 49.0686 64.8726C48.8137 65.7223 49.1536 66.487 49.6209 67.2092L49.7059 67.3367C49.9183 67.5916 49.5784 67.9315 49.3235 67.7615Z" fill="#26547C"/>
<path d="M83.3103 57.3529C83.9476 60.3693 85.1371 63.1732 86.6241 65.8072C87.9411 69.0359 84.5424 72.0947 81.526 71.9673C81.1862 71.9673 81.1437 71.5 81.4411 71.415C83.3528 70.8202 85.0947 69.5457 85.392 67.5915C85.5195 66.9967 85.3496 66.4869 85.0522 65.9771C83.6502 63.3431 82.8005 60.3268 83.013 57.3529C83.013 57.1405 83.3103 57.1405 83.3103 57.3529Z" fill="#26547C"/>
<path d="M52.255 61.8987C51.2779 59.3922 49.1537 57.0131 46.3073 57.0556C46.0524 57.0131 45.6276 57.0981 45.3727 57.0981C44.6504 57.1406 44.0557 57.3955 43.5034 57.9053C40.7844 60.6242 41.2517 65.4249 43.4609 68.4412C44.2256 69.5033 45.2027 70.4379 46.3073 71.2027C47.4119 71.9674 48.6439 72.5621 49.9609 73.0719C50.2583 73.1569 50.1308 73.6242 49.8334 73.5817C46.987 72.987 44.2681 71.585 42.3988 69.2484C39.5099 65.7647 38.9151 59.9445 42.3563 56.5458C43.121 55.866 44.1831 55.3562 45.2452 55.3562C45.5851 55.3562 46.0949 55.2713 46.4348 55.3562C48.2191 55.4412 49.9184 56.3334 51.023 57.7353C52.0001 58.9249 52.5524 60.3693 52.7223 61.8138C52.7223 62.0687 52.34 62.1536 52.255 61.8987Z" fill="#26547C"/>
<path d="M80.0816 76.2157C77.3627 78.8072 72.2221 76.7255 70.8627 73.5817C70.6927 73.1994 71.1176 72.8595 71.4574 73.0294C72.1797 73.4118 72.8169 73.7941 73.4966 74.0915C75.4509 74.9837 77.4901 75.7059 79.6568 75.4935C80.0816 75.4085 80.379 75.9183 80.0816 76.2157Z" fill="#26547C"/>
<path d="M67.4643 61.6864C66.4447 61.6439 65.68 60.7942 65.765 59.7746L65.8075 58.5851C65.85 57.5655 66.6996 56.8008 67.7192 56.8857C68.7388 56.9282 69.5035 57.7779 69.4186 58.7975L69.3761 59.987C69.3336 60.9642 68.4839 61.7289 67.4643 61.6864Z" fill="#26547C"/>
<path d="M85.3498 62.3238C84.4152 62.2813 83.6929 61.4741 83.7354 60.5395L83.7779 59.4349C83.8204 58.5002 84.6276 57.778 85.5622 57.8205C86.4969 57.863 87.2191 58.6702 87.1766 59.6048L87.1341 60.7094C87.0916 61.644 86.2844 62.3663 85.3498 62.3238Z" fill="#26547C"/>
<path d="M71.2878 59.3923C69.8859 58.4577 68.3565 57.8204 66.6571 58.1603C66.1048 58.2453 65.5525 58.4152 65.2127 58.7975C65.0852 58.9675 64.7878 58.925 64.7878 58.6701C64.8303 57.8204 65.5525 57.2681 66.2323 56.9283C67.5493 56.2485 69.3761 56.376 70.5656 57.2681C70.9905 57.523 72.4349 59.0949 71.6702 59.4348C71.5003 59.5198 71.4153 59.4773 71.2878 59.3923Z" fill="#26547C"/>
<path d="M83.4382 59.6047C83.4382 57.8203 85.6474 57.1831 87.0069 57.8203C87.7716 58.1602 88.3239 58.8399 88.5363 59.6471C88.6212 59.902 88.2389 60.1145 88.069 59.902C87.3467 59.0524 86.1147 58.6275 85.1376 59.1373C84.8402 59.3073 84.7977 59.4347 84.7127 59.6047C84.7127 60.4543 83.4807 60.4119 83.4382 59.6047Z" fill="#26547C"/>
<path d="M73.327 52.3824C74.2192 52.6798 75.1113 51.8726 74.9414 50.8955C74.8564 50.3857 74.644 49.8759 74.2192 49.4935C72.9446 48.3465 67.6767 47.3269 64.4904 48.8138C61.6865 50.1733 69.2486 51.0229 73.327 52.3824Z" fill="#26547C"/>
<path d="M86.0297 53.0623C85.3075 53.3172 84.5428 52.5525 84.6703 51.6603C84.7128 51.193 84.8827 50.7257 85.2226 50.3858C86.2422 49.3662 89.7258 48.559 91.935 50.1309C93.8467 51.4479 89.3435 51.8302 86.0297 53.0623Z" fill="#26547C"/>
<path d="M97.2451 36.281C95.036 17.4182 76.3007 11.0457 79.9118 23.6208C79.9118 23.6208 74.9837 15.7189 63.8955 15.294C54.3791 14.9542 60.1569 21.7091 60.1569 21.7091C60.1569 21.7091 52.7647 17.4607 40.2321 23.8332C29.3138 29.3986 39.4249 34.2842 39.4249 34.2842C39.4249 34.2842 31.183 38.66 31.0556 48.0914C31.0131 50.5555 33.0523 54.3365 37.8955 53.1045C36.6634 62.4934 42.3987 70.1829 45.0327 73.3267C48.4314 77.4051 48.7288 80.5064 48.7288 80.5064C50.4706 79.5293 48.4314 75.1535 48.4739 72.8594C37.853 68.7809 39.7647 56.928 44.9477 56.2483C50.3857 55.5685 52.085 60.4117 52.3824 61.6012C53.2745 60.5391 53.5294 56.4182 54.0392 52.0424C55.6111 51.5326 57.0131 50.9803 58.1602 50.2581C62.6634 47.5816 64.7876 42.9509 69.3758 40.2319C77.4053 35.4313 79.487 46.2646 83.7778 42.2711C88.7484 37.6829 92.3595 41.3365 93.4641 46.9868C93.8889 49.026 96.4804 48.8561 96.8628 46.8169C97.4576 43.843 97.7124 40.2744 97.2451 36.281Z" fill="#26547C"/>
<path d="M122.438 35.8137C148.225 85.4771 102.895 141.513 48.8562 127.833C24.598 121.801 5.09803 100.771 1.06208 76.0882C-3.52615 51.5326 7.56208 25.1503 28.2941 11.2581C56.7157 -8.28436 96.098 -1.78436 116.448 26.1699C116.575 26.2973 116.533 26.5098 116.363 26.6372C116.235 26.7647 116.023 26.7222 115.895 26.5522C113.091 22.9411 109.905 19.6699 106.422 16.7385C100.686 11.8529 93.9738 8.02937 86.8791 5.43787C50.768 -7.6471 11.1307 14.1045 3.22875 51.8725C-5.69282 94.1862 30.2908 133.144 73.1993 127.323C106.294 123.16 130.892 92.6143 128.173 59.3921C127.578 51.3627 125.454 43.4183 121.928 36.1111C121.843 35.9836 121.928 35.8137 122.056 35.7287C122.183 35.6437 122.353 35.6862 122.438 35.8137Z" fill="#26547C"/>
</g>
</svg>
