<svg width="130" height="130" viewBox="0 0 130 130" fill="none" xmlns="http://www.w3.org/2000/svg">
<mask id="mask0_316_1324" style="mask-type:alpha" maskUnits="userSpaceOnUse" x="0" y="0" width="130" height="130">
<circle cx="64.7869" cy="64.7869" r="64.7869" fill="#D9D9D9"/>
</mask>
<g mask="url(#mask0_316_1324)">
<path d="M100.304 118.274C100.007 118.487 99.6667 118.699 99.3693 118.912C99.0295 119.124 98.7321 119.337 98.3922 119.506C98.0948 119.676 97.8399 119.846 97.5425 120.016C97.5001 120.059 97.4576 120.059 97.4151 120.101C96.438 120.696 95.4184 121.248 94.3988 121.758C94.1014 121.928 93.7615 122.098 93.4641 122.225C93.4641 122.225 93.4216 122.268 93.3792 122.268C93.0393 122.438 92.6994 122.608 92.3595 122.778C91.6798 123.118 90.9576 123.415 90.2778 123.712C89.938 123.882 89.5556 124.01 89.2158 124.137C88.8759 124.265 88.4935 124.435 88.1537 124.562C87.8138 124.69 87.4314 124.859 87.0916 124.987C87.0916 124.987 87.0916 124.987 87.0491 124.987C86.7092 125.114 86.3269 125.242 85.987 125.369C85.2223 125.624 84.4151 125.879 83.6504 126.134C83.3955 126.219 83.0981 126.304 82.8432 126.389C82.036 126.644 81.2288 126.856 80.4216 127.026C80.1243 127.111 79.8269 127.154 79.487 127.239C78.7223 127.408 77.9151 127.578 77.1504 127.748C76.9805 127.791 76.853 127.791 76.6831 127.833C76.4282 127.876 76.1308 127.918 75.8759 127.961C75.4935 128.003 75.1537 128.088 74.7713 128.131C74.6014 128.173 74.4314 128.173 74.2615 128.216C74.0491 128.258 73.7942 128.301 73.5393 128.301C72.8595 128.386 72.1373 128.471 71.4576 128.556C71.2452 128.598 70.9903 128.598 70.7779 128.64H70.7354C70.438 128.683 70.1406 128.683 69.8432 128.725C69.5458 128.768 69.2484 128.768 68.9511 128.768C68.7811 128.768 68.5687 128.81 68.3988 128.81C68.0589 128.81 67.7615 128.853 67.4641 128.853C67.0393 128.853 66.6569 128.895 66.2321 128.895C65.8073 128.895 65.4249 128.895 65.0001 128.895C64.7027 128.895 64.4053 128.895 64.1079 128.895C46.1798 128.64 30.0785 121.036 18.5654 108.971C18.5654 108.971 18.5654 108.928 18.5229 108.928C17.2484 107.781 18.353 101.663 23.4935 97.7973C29.9511 92.9117 45.4151 89.8529 45.4151 89.8529C45.4151 89.8529 51.4053 88.8758 73.6243 93.5065C86.6243 96.2255 96.5229 100.176 102.046 110.882C103.193 113.091 104.34 116.49 100.304 118.274Z" fill="#EF476F"/>
<path d="M73.7517 93.0392C81.9086 94.696 90.6178 96.4804 97.3302 101.876C99.5818 103.703 101.069 106.379 102.301 108.971C102.896 110.245 103.49 111.562 103.958 112.964C104.213 113.899 104.595 114.961 104.382 116.065C104.34 116.363 104.085 116.745 103.873 116.957C102.896 117.935 101.833 118.529 100.771 119.294C94.5263 123.627 87.3465 126.686 79.9119 128.301C63.3432 131.912 45.4151 129.108 30.8432 120.399C26.0001 117.467 21.5393 113.899 17.7158 109.693C17.291 109.183 17.291 108.333 17.291 107.781C17.3334 106.506 17.6733 105.274 18.0981 104.127C19.1178 101.493 20.4347 98.8594 22.6864 97.0326C24.3008 95.9281 26.0426 94.9934 27.8269 94.2287C33.4347 91.8496 39.34 90.1928 45.4151 89.513C45.9249 89.4705 46.0099 90.1928 45.5001 90.2777C39.6798 91.4673 33.9021 93.2516 28.5066 95.6732C26.5524 96.6503 24.4707 97.5 22.8988 99.0294C21.4119 100.644 20.3498 102.64 19.5001 104.68C18.9478 105.912 18.5655 107.866 18.7354 108.843C21.4119 112.029 24.5557 114.833 27.9544 117.255C46.5622 130.255 74.8138 131.105 94.6112 120.271C96.3955 119.294 98.1374 118.19 99.7942 117.042C100.601 116.49 101.451 116.023 102.088 115.386C102.131 115.343 102.088 115.386 102.088 115.428C102.088 115.471 102.046 115.513 102.046 115.513C102.088 115.003 101.918 114.323 101.706 113.644C100.941 111.18 99.7093 108.588 98.3923 106.337C96.3106 102.98 92.7844 100.856 89.2158 99.1568C86.7517 98.0098 84.1602 97.1176 81.5262 96.2679C78.8923 95.4183 76.2158 94.696 73.5393 94.0588C72.8596 93.8888 73.072 92.9117 73.7517 93.0392Z" fill="#FBFBFB"/>
<path d="M38.6177 91.1698C40.1047 93.8038 45.755 104.382 46.6471 113.729L51.9151 115.513C51.9151 115.513 47.9216 97.8398 40.7844 89.6404C40.7844 89.6404 39.9347 89.2581 38.8726 89.9803C38.5328 90.2777 38.3628 90.745 38.6177 91.1698Z" fill="#FBFBFB"/>
<path d="M83.8202 113.856C83.8202 113.856 84.0751 102.088 78.9771 94.3562C78.8496 94.1438 79.0195 93.8464 79.2744 93.8889C79.6143 93.9738 80.1241 94.1013 80.9313 94.4836C82.2908 95.1209 86.7091 101.876 87.0914 112.964C87.0914 112.922 84.245 113.856 83.8202 113.856Z" fill="#FBFBFB"/>
<path d="M98.3496 102.81C96.1404 100.474 89.4705 96.9902 88.3235 97.0752C88.3659 97.1601 88.3659 97.2876 88.4084 97.415C90.1927 103.83 88.7483 112.539 82.2483 113.984C75.4934 115.471 69.8431 115.683 56.2908 114.324C46.3496 113.346 37.0032 104.425 32.245 95.5882C31.7777 94.6961 31.2254 93.8039 30.6306 92.9967C30.2908 92.7418 29.6535 92.7843 29.1862 93.1667C27.9967 94.1438 26.4248 94.0588 26.4248 94.9935C26.4248 94.9935 17.4182 97.7974 14.2744 117.552C12.4901 128.725 9.98359 143.212 9.89862 148.141H106.634C105.954 141.513 106.634 111.987 98.3496 102.81Z" fill="#FBFBFB"/>
<path d="M97.5426 103.575C96.2681 102.3 94.6112 101.323 93.0393 100.389C91.5948 99.5391 89.8105 98.6044 88.3236 98.1796L89.3007 96.8201L89.3432 97.075C90.5328 102.046 90.2779 107.951 86.8367 112.029C85.6471 113.389 83.9053 114.366 82.121 114.663C78.8073 115.343 75.3661 115.725 71.9674 115.725C66.0197 115.683 60.1569 115.216 54.2942 114.408C50.1308 113.516 46.2648 111.434 42.9086 108.843C38.1929 105.189 34.5818 100.389 31.2256 95.5031C30.7582 94.8234 30.206 94.1861 29.6112 93.6338L29.8236 93.8887C29.9086 93.9737 29.9511 93.9312 29.9086 93.9312C29.9086 93.9312 29.8236 93.9312 29.7811 93.9737C29.7386 93.9737 29.7386 93.9737 29.6962 94.0587C29.0164 94.6534 27.9118 94.9508 27.2321 95.3332C27.2746 95.3332 27.3596 95.0783 27.3596 95.0358L26.5948 96.0554L26.4674 96.0979L26.2975 96.1828C20.4772 99.3266 17.6733 106.804 16.1439 112.921C14.6569 119.889 13.7648 127.068 12.5752 134.078C11.8955 138.751 11.0458 143.552 10.8334 148.183L9.72883 147.078H106.634L105.572 148.268C104.68 136.5 105.147 112.624 97.5426 103.575ZM99.1569 102.088C107.356 111.647 106.846 135.65 107.739 148.055C107.781 148.65 107.356 149.202 106.762 149.245C106.719 149.33 9.94125 149.202 9.89876 149.245C9.30399 149.245 8.79419 148.778 8.79419 148.183C8.87916 145.676 9.21903 143.255 9.51641 140.876C10.4935 133.738 11.6831 126.644 12.8301 119.549C13.5524 114.791 14.5295 109.905 16.4412 105.402C18.353 100.941 21.1994 96.2678 25.7877 94.1012C25.8726 94.0587 25.9576 94.0162 26.085 93.9737L25.3203 94.9933C25.2778 93.5064 26.8922 93.124 27.9118 92.6992C28.5916 92.3168 29.1439 91.7646 29.9935 91.7646C30.4184 91.7221 31.1831 91.892 31.5229 92.4018C32.1177 93.5913 32.6275 94.7809 33.1373 95.9704C33.987 97.8822 35.0916 99.6665 36.3661 101.323C40.9543 107.144 47.1569 112.242 54.5491 113.729C57.0131 114.153 59.5622 114.238 62.0262 114.451C68.6962 114.918 75.4086 115.003 81.9086 113.389C83.438 113.049 84.755 112.242 85.7321 111.052C88.621 107.399 88.621 102.046 87.3465 97.7123L87.2615 97.3724C87.0491 96.7351 87.5589 96.0129 88.2386 96.0129C89.4707 96.0554 90.4053 96.6502 91.5099 97.1175C94.2288 98.477 96.9053 99.9214 99.1569 102.088Z" fill="#FBFBFB"/>
<path d="M84.8401 118.572C77.8728 121.546 54.9741 122.225 43.3336 115.938C35.9839 111.987 31.2257 103.278 28.9316 99.9216C27.2322 97.3725 26.3826 94.9935 26.3826 94.9935C26.3826 94.0588 27.9969 94.1438 29.144 93.1667C29.6113 92.7843 30.2486 92.7418 30.5885 92.9967C31.1832 93.8464 31.7355 94.6961 32.2028 95.5882C36.961 104.382 44.4806 113.219 56.2486 114.324C69.8009 115.598 75.4512 115.471 82.2061 113.984C88.7061 112.539 90.1505 103.83 88.3662 97.415C88.3237 97.3301 88.3238 97.2026 88.2813 97.0752C89.4283 96.9902 91.6375 97.2026 92.4447 99.2418C92.4872 99.2418 95.7584 113.941 84.8401 118.572Z" fill="#EF476F"/>
<path d="M85.0949 119.167C82.2909 120.314 79.3596 120.738 76.4282 121.078C73.4968 121.418 70.5655 121.546 67.6341 121.546C60.2844 121.461 52.8073 120.781 45.8825 118.147C37.9805 115.3 32.8824 108.121 28.6341 101.323C27.3596 99.4541 26.17 97.5423 25.4478 95.3757C25.2354 94.8234 25.5753 94.0587 26.0426 93.7188C26.6798 93.209 27.4021 93.209 28.0393 92.9541C28.4641 92.8266 28.7191 92.5717 29.1014 92.3593C29.7811 92.0619 30.5458 91.807 31.3955 92.1894C36.2811 102.853 44.3106 113.049 56.8857 113.941C65.2125 114.706 73.7092 115.555 81.9511 113.644C85.2648 113.091 87.4315 110.117 88.1962 106.974C89.0459 103.787 88.7909 100.346 87.8988 97.2025C87.8138 96.9051 88.0262 96.6077 88.3236 96.6077C90.1504 96.4378 92.4021 97.2449 93.0393 99.1567C93.7615 102.98 93.7615 106.889 92.657 110.585C91.5524 114.366 88.7485 117.68 85.0949 119.167ZM84.5851 117.977C87.9838 116.617 90.4903 113.729 91.6374 110.287C92.7844 106.804 92.9119 102.938 92.1896 99.3266C91.6798 97.9247 89.8955 97.3299 88.3661 97.5423L88.7909 96.9476C90.2354 102.385 89.938 110.202 84.5426 113.474C83.7779 113.899 82.9282 114.196 82.0785 114.366C80.4217 114.706 78.7223 115.003 77.0655 115.216C70.3106 115.938 63.5132 115.385 56.8007 114.833C45.2877 114.238 36.4086 105.189 31.4805 95.4181C31.1406 94.6534 30.7583 93.9312 30.3759 93.1665L30.4609 93.2515C29.8236 92.8691 29.1439 93.7613 28.5491 93.9737C27.9968 94.2711 27.4021 94.3985 26.9347 94.6959C26.8498 94.7809 26.8073 94.8659 26.8073 94.9933V94.8659C27.7844 97.5423 29.5687 99.9639 31.0981 102.343C34.9641 108.291 39.6374 114.281 46.5197 116.745C56.121 120.568 74.7289 121.503 84.5851 117.977Z" fill="#FBFBFB"/>
<path d="M77.7448 104.34C76.8526 108.716 71.0748 111.35 61.3461 107.399C51.235 103.32 46.8592 93.5915 45.7546 90.7026C51.7448 79.4869 47.5814 71.7124 47.5814 71.7124C61.3886 70.5229 73.4539 86.6667 73.4539 86.6667L75.3232 94.6536C75.4931 95.3333 75.833 95.9281 76.3428 96.353C77.235 97.9249 78.2971 101.536 77.7448 104.34Z" fill="#EF476F"/>
<path d="M45.5423 90.83C46.3495 89.598 46.8593 88.1536 47.1992 86.7516C47.8364 83.8202 48.0488 80.8464 48.0913 77.8725V76.7679C47.9639 75.6634 47.5815 74.5163 47.1567 73.4967C46.6044 72.1372 48.6011 71.2876 49.2384 72.647C49.3234 72.817 49.3234 73.1144 49.3234 73.2843C49.4508 79.0621 49.7057 86.4967 46.0521 91.2974C45.7972 91.5523 45.2874 91.1699 45.5423 90.83Z" fill="#FBFBFB"/>
<path d="M73.9213 86.5817C74.5585 86.964 74.7709 87.4739 74.8559 87.9837C75.1108 89.0033 75.0258 90.1078 75.2807 91.1699C75.4932 92.1895 76.1304 93.1667 76.3004 94.2288C76.5128 95.3333 77.15 97.6699 77.4049 98.817C77.4899 99.0719 77.32 99.3693 77.0226 99.4118C76.8526 99.4542 76.7252 99.4118 76.5977 99.3268C76.0455 98.8595 75.7906 98.3922 75.4507 97.7974C74.8984 96.7778 74.516 95.8431 74.1762 94.6961C73.8788 93.6765 74.0062 92.5719 73.7513 91.5098C73.5389 90.4902 72.9441 89.5131 72.7317 88.451C72.6043 87.9412 72.5618 87.3889 72.9441 86.7516C73.199 86.4967 73.6239 86.4118 73.9213 86.5817Z" fill="#FBFBFB"/>
<path d="M76.9802 97.7974C68.8659 97.3725 62.2384 94.8235 55.7809 83.3104C61.2188 88.1111 67.6338 89.9379 74.3887 90.7875L75.2809 94.696C75.4508 95.3758 76.4704 97.3725 76.9802 97.7974Z" fill="#FBFBFB"/>
<path d="M76.6405 96.2254C78.085 98.9444 78.9347 102.343 78.0425 105.359C77.3628 107.484 75.4085 109.055 73.2843 109.65C68.3562 110.967 62.6634 108.886 58.2876 106.549C52.8922 103.533 48.8987 98.477 46.3497 92.9542C46.1798 92.5293 46.7745 92.1895 47.0294 92.6143C47.9216 94.3986 48.9412 96.1404 50.0883 97.7123C51.2353 99.3267 52.5523 100.814 54.0392 102.131C58.3726 106.039 64.2353 108.461 70.0981 108.461C76.1307 108.291 78.4249 105.104 77.0229 99.2418C76.8105 98.3071 76.4706 97.33 76.0033 96.5228C75.7484 96.1829 76.3856 95.8006 76.6405 96.2254Z" fill="#FBFBFB"/>
<path d="M93.0816 45.2026C93.8463 48.7712 91.2972 52.5947 91.2972 62.1111C91.2972 71.8398 89.5129 82.4183 82.1632 89.7679C75.8332 96.098 68.5685 95.8431 60.0293 89.1732C58.8397 88.2385 54.6763 85.0947 53.6142 84.0326C52.3822 82.8006 51.7025 81.9085 51.1077 80.9738C50.5979 80.1241 50.7253 75.196 50.0031 74.049C48.1338 70.9477 47.7515 74.3039 45.3299 71.5849C41.9737 67.9313 37.9378 60.5817 39.9345 47.5817C43.1632 26.5098 59.8593 24.0457 72.2221 26.3823C84.6698 28.7614 91.0423 35.8137 93.0816 45.2026Z" fill="#EF476F"/>
<path d="M47.4541 75.366C46.4769 73.7516 45.2449 72.3072 44.0979 70.8202C42.9508 69.2484 42.0162 67.5915 41.2515 65.8072C36.9181 55.3137 37.5554 41.5915 45.2449 32.7549C50.5129 26.7222 58.8397 24.7255 66.4868 25.1503C74.1338 25.6176 82.0783 27.5719 87.7286 33.0948C90.9998 36.281 93.0815 40.5294 94.0162 44.9477C94.3135 46.3497 94.1011 47.8791 93.7613 49.1961C92.7841 52.8921 91.8495 56.4183 91.7645 60.2418C91.807 65.9346 91.6371 71.7549 89.9802 77.2353C88.7907 80.8889 87.3887 84.5425 85.1796 87.7287C82.8854 90.9575 79.4443 93.549 75.4933 94.3137C67.5488 95.9281 60.1142 90.915 54.8462 85.4771C54.6338 85.2222 54.9312 84.9248 55.1861 85.0948C58.2024 87.3889 61.3037 89.5131 64.66 90.9575C74.3462 95.4183 82.3756 91.2974 86.624 81.951C90.1926 75.1536 91.2122 67.8039 90.9149 60.1993C90.9149 58.2876 90.9998 56.3758 91.2547 54.464C91.5096 51.7026 92.4443 48.9412 92.4018 46.2222C91.6796 41.8039 89.6403 37.5555 86.5815 34.2843C79.3168 26.5948 65.3822 24.3431 55.6109 27.8268C44.0979 31.9052 40.9966 43.5033 40.3593 54.5915C39.9345 61.2189 41.8887 67.7189 46.9018 72.2647L48.8985 74.3464C49.5783 75.281 48.1338 76.3856 47.4541 75.366Z" fill="#FBFBFB"/>
<path d="M52.4672 61.8561C52.4672 61.8561 51.1502 55.4836 44.9476 56.2483C39.5946 56.928 37.7254 69.7581 49.8757 73.3267" fill="#EF476F"/>
<path d="M49.3234 67.7614C48.3463 67.2091 47.6665 66.2745 47.624 65.1274C47.6665 64.2777 47.794 63.3006 47.5816 62.4509C47.4541 61.6438 46.6044 61.4313 45.9672 61.4738C45.2874 61.6013 44.8626 62.4509 44.7352 63.1307C44.7352 63.1732 44.6927 63.3006 44.6927 63.3431C44.6502 63.5555 44.3103 63.5555 44.2254 63.3431C43.6731 61.6862 44.9051 59.8594 46.6894 60.0719C49.1959 60.2418 49.5358 62.8758 49.0685 64.8725C48.8136 65.7222 49.1535 66.4869 49.6208 67.2091L49.7057 67.3366C49.9182 67.5915 49.5783 67.9313 49.3234 67.7614Z" fill="#FBFBFB"/>
<path d="M83.3103 57.3529C83.9475 60.3693 85.1371 63.1732 86.624 65.8072C87.941 69.0359 84.5423 72.0947 81.526 71.9673C81.1861 71.9673 81.1436 71.5 81.441 71.415C83.3528 70.8202 85.0946 69.5457 85.392 67.5915C85.5194 66.9967 85.3495 66.4869 85.0521 65.9771C83.6501 63.3431 82.8005 60.3268 83.0129 57.3529C83.0129 57.1405 83.3103 57.1405 83.3103 57.3529Z" fill="#FBFBFB"/>
<path d="M52.2549 61.8986C51.2778 59.3921 49.1536 57.013 46.3072 57.0555C46.0523 57.013 45.6274 57.0979 45.3725 57.0979C44.6503 57.1404 44.0555 57.3953 43.5033 57.9051C40.7843 60.6241 41.2516 65.4248 43.4608 68.4411C44.2255 69.5032 45.2026 70.4378 46.3072 71.2025C47.4118 71.9672 48.6438 72.562 49.9608 73.0718C50.2582 73.1568 50.1307 73.6241 49.8333 73.5816C46.9869 72.9868 44.268 71.5849 42.3987 69.2483C39.5098 65.7646 38.915 59.9444 42.3562 56.5457C43.1209 55.8659 44.183 55.3561 45.2451 55.3561C45.585 55.3561 46.0948 55.2712 46.4346 55.3561C48.2189 55.4411 49.9183 56.3332 51.0229 57.7352C52 58.9247 52.5523 60.3692 52.7222 61.8136C52.7222 62.0685 52.3399 62.1535 52.2549 61.8986Z" fill="#FBFBFB"/>
<path d="M79.1044 76.0457C79.1469 76.7255 78.6371 77.915 77.7024 78.7647C72.9018 75.8333 70.7351 77.3627 70.7351 77.3627C69.0358 74.7712 69.4181 71.2451 73.539 73.9215C76.3855 75.7908 78.1698 76.0882 79.1044 76.0457Z" fill="#FBFBFB"/>
<path d="M77.6599 78.8071C76.6403 79.6993 75.1109 80.2516 73.0292 79.4019C72.0521 79.0195 71.2874 78.2548 70.6926 77.4051C70.7351 77.4051 72.8593 75.8757 77.6599 78.8071Z" fill="#EF476F"/>
<path d="M79.9116 75.9183C79.9116 75.9183 78.1273 76.8954 73.539 73.964C68.0586 70.4379 69.1632 77.83 73.0292 79.4019C77.0652 81.0588 79.1469 77.4477 79.1044 76.0882" stroke="#FBFBFB" stroke-width="0.3" stroke-miterlimit="10" stroke-linecap="round" stroke-linejoin="round"/>
<path d="M70.7353 77.4051C70.7353 77.4051 72.902 75.8757 77.7026 78.8071" stroke="#FBFBFB" stroke-width="0.3" stroke-miterlimit="10" stroke-linecap="round" stroke-linejoin="round"/>
<path d="M74.0065 51.8301C74.9411 51.7451 75.4085 50.6405 74.8987 49.7908C74.6013 49.366 74.2189 48.9836 73.6666 48.7712C72.0522 48.2614 66.7843 49.4085 64.4902 52.0425C62.4509 54.464 69.7581 52.2124 74.0065 51.8301Z" fill="#FBFBFB"/>
<path d="M85.2223 52.5097C84.5001 52.2973 84.2877 51.2352 84.8824 50.5554C85.1798 50.2156 85.6047 49.9182 86.072 49.8332C87.5164 49.5783 90.8301 50.8953 91.7648 53.4018C92.6145 55.5685 88.6635 53.3594 85.2223 52.5097Z" fill="#FBFBFB"/>
<path d="M67.4642 61.6863C66.4446 61.6438 65.6799 60.7941 65.7649 59.7745L65.8074 58.5849C65.8498 57.5653 66.6995 56.8006 67.7191 56.8856C68.7387 56.9281 69.5034 57.7778 69.4185 58.7974L69.376 59.9869C69.3335 60.964 68.4838 61.7287 67.4642 61.6863Z" fill="#FBFBFB"/>
<path d="M85.3496 62.3235C84.415 62.281 83.6928 61.4739 83.7352 60.5392L83.7777 59.4346C83.8202 58.5 84.6274 57.7778 85.562 57.8203C86.4967 57.8627 87.2189 58.6699 87.1764 59.6046L87.1339 60.7091C87.0915 61.6438 86.2843 62.366 85.3496 62.3235Z" fill="#FBFBFB"/>
<path d="M71.2875 59.3921C69.8856 58.4574 68.3562 57.8202 66.6568 58.16C66.1045 58.245 65.5522 58.4149 65.2124 58.7973C65.0849 58.9672 64.7875 58.9248 64.7875 58.6698C64.83 57.8202 65.5522 57.2679 66.232 56.928C67.549 56.2483 69.3758 56.3757 70.5653 57.2679C70.9902 57.5228 72.4346 59.0947 71.6699 59.4345C71.5 59.5195 71.415 59.477 71.2875 59.3921Z" fill="#FBFBFB"/>
<path d="M83.4377 59.6045C83.4377 57.8202 85.6468 57.183 87.0063 57.8202C87.771 58.1601 88.3233 58.8398 88.5357 59.647C88.6207 59.9019 88.2383 60.1143 88.0684 59.9019C87.3462 59.0522 86.1142 58.6274 85.137 59.1372C84.8396 59.3071 84.7972 59.4346 84.7122 59.6045C84.7122 60.4542 83.4802 60.4117 83.4377 59.6045Z" fill="#FBFBFB"/>
<path d="M93.2 57.3953C93.2425 57.1828 93.285 56.9704 93.285 56.758C93.7098 54.0815 94.0072 51.6175 94.1772 49.2809C94.517 44.5227 93.6249 35.941 86.785 30.8005C86.1902 30.3332 85.553 29.9083 84.8308 29.526C84.236 29.1861 83.5987 28.8887 82.9615 28.5913C77.3961 26.2123 68.4321 23.3659 59.553 24.8953C56.1543 25.4476 52.7556 26.6796 49.5693 28.7613C49.5268 28.7613 49.5268 28.8038 49.5268 28.8038C41.7948 33.9018 39.0759 41.9737 37.6314 49.5783C37.1641 51.9998 36.8242 54.4214 36.5268 56.6306C36.3569 57.7776 36.187 58.8822 36.017 59.9018C35.3798 63.7678 33.2556 67.209 31.004 69.9279C30.8765 70.0554 30.7491 70.2253 30.6216 70.3528C28.7948 72.4345 26.968 74.0913 25.6935 75.0685C25.6085 75.1109 25.5236 75.1959 25.4811 75.2384C28.285 84.075 38.9909 90.7025 48.8896 92.6992C50.334 86.3691 51.3111 79.9541 50.0791 73.3691C49.7393 73.2417 49.5693 73.1142 49.5693 73.0293C37.8438 69.3332 39.7131 56.758 45.0236 56.0783C46.9353 55.8234 48.3373 56.2907 49.4419 56.9704C50.9288 58.075 52.5432 60.8364 52.5432 61.6436C52.6281 59.7743 53.4353 57.1828 54.4125 57.0979C55.4321 57.0129 56.4517 56.8005 57.4288 56.4181C62.3144 54.7188 66.7752 50.1306 70.7262 46.0521C76.1641 40.4443 80.5824 35.6861 83.7262 40.4018C83.8961 40.6567 84.0661 40.9116 84.1935 41.1665C87.9321 41.0815 89.6739 43.2482 90.5661 45.4998C90.5661 45.4998 90.5661 45.4998 90.5661 45.5423C91.2883 47.4541 91.3732 49.4083 91.4582 49.9181C91.4582 50.0031 91.4582 50.0456 91.5007 50.0456C91.4157 51.7449 91.2033 54.6338 91.1608 58.3724C91.1608 60.0717 91.3308 63.4704 91.2033 65.4247C91.1608 66.0194 91.1183 66.6142 91.0759 67.1665C91.0334 67.4639 91.0334 67.7613 90.9909 68.0162C90.9484 68.2711 90.9484 68.5685 90.9059 68.8658C90.8634 69.2907 90.821 69.7155 90.7785 70.1828C90.736 70.5652 90.6935 70.9476 90.651 71.3299V71.3724C90.6085 71.6698 90.5661 71.9247 90.5236 72.1796C89.8863 75.5783 88.9092 79.1894 87.5072 81.356C84.7033 85.7319 82.4942 89.4279 78.4582 91.2972C74.4647 93.124 69.919 93.5064 69.919 93.5064C69.919 93.5064 71.1935 94.3136 74.2098 94.4835C77.1837 94.6534 79.3928 93.7613 81.602 94.1436C86.3177 94.9508 94.602 94.9508 94.602 94.9508C100.805 78.6371 90.3112 77.8724 93.2 57.3953Z" fill="#FBFBFB"/>
<path d="M60.1143 70.098C61.3039 69.4608 62.4509 68.781 63.7679 68.4412C63.8954 68.4412 63.9804 68.3987 64.2353 68.4836C65.1274 69.1634 62.5359 70.8627 62.0686 71.2876C62.196 71.1176 62.1536 70.8202 61.9411 70.7353C61.8987 70.7353 61.8987 70.6928 61.8562 70.6928C61.7712 70.6928 61.7712 70.6928 61.7712 70.6928C62.8333 70.3104 63.8954 69.8856 64.915 69.3758C65.5098 69.1209 66.317 68.5686 66.9542 68.5261C67.2091 68.5261 67.5065 68.781 67.464 69.0359C67.4215 69.3758 67.3366 69.5033 67.2516 69.7157C67.1666 69.8856 66.9967 70.1405 66.9542 70.3104C66.9542 70.3529 66.9117 70.268 66.9117 70.268C66.9117 70.3104 67.1666 70.3104 67.2091 70.268C67.8889 70.183 68.6111 69.9281 69.2908 69.6732C69.4183 69.6307 69.5032 69.8006 69.3758 69.8856C68.6536 70.3529 67.8889 70.8627 66.9542 70.9477C66.3594 70.9902 66.0621 70.4379 66.2745 69.9281C66.3594 69.6307 66.5719 69.2908 66.6568 69.0359C66.6568 69.1209 66.7418 69.2484 66.8268 69.2908C66.9117 69.3333 66.9542 69.2908 66.9117 69.3333C66.4869 69.4608 65.6372 69.9281 65.2549 70.098C64.1503 70.6078 63.0882 71.0751 61.8987 71.415C61.8137 71.415 61.8137 71.4575 61.6862 71.415C61.3464 71.3725 61.2614 70.9477 61.5163 70.7353C62.0261 70.3104 62.6209 69.9706 63.0882 69.5457C63.3431 69.3333 63.6405 69.0359 63.8104 68.781C63.8104 68.8235 63.8529 68.9085 63.8954 68.951C63.513 68.9935 62.7483 69.2059 62.281 69.4183C61.6013 69.6732 60.879 69.9706 60.1993 70.268C60.1143 70.3529 59.9869 70.1405 60.1143 70.098Z" fill="#FBFBFB"/>
<path d="M87.6438 70.098C88.0262 69.6732 89.6405 67.634 90.0654 68.696C90.0654 68.781 90.0654 68.866 90.0654 68.9085C89.8954 69.7581 89.3432 70.4804 88.9183 71.2026C89.0033 70.9902 88.8333 70.6928 88.6209 70.6503C88.536 70.6503 88.4935 70.6503 88.451 70.6503C88.4085 70.6503 88.451 70.6503 88.4935 70.6078C89.3432 70.0555 89.9804 69.3758 90.8301 68.781C91 68.696 91.2124 68.5686 91.4248 68.696C91.6373 68.866 91.5948 69.1209 91.5098 69.2908C91.4248 69.5032 91.3399 69.6732 91.2549 69.8856C91.2124 69.9281 91.1699 69.9706 91.085 69.9281C91.0425 69.9281 91.0425 69.8856 91.0425 69.8431C91.0425 69.7581 91.0425 69.2059 91.0425 69.1209C91 69.0359 91.0425 69.0784 91.0425 69.1209C91.0425 69.1634 91.1275 69.2483 91.2124 69.2483C91.2549 69.2483 91.3399 69.2483 91.3399 69.2483C90.6177 70.098 89.768 70.9052 88.7909 71.4575C88.4935 71.5849 88.1536 71.33 88.1961 70.9902C88.1961 70.9477 88.2386 70.8627 88.2811 70.8202C88.5784 70.3954 88.9183 69.9706 89.1732 69.5457C89.3007 69.3333 89.4706 69.0359 89.5131 68.8235C89.5131 68.9085 89.683 69.0359 89.7255 68.9934C89.0458 69.2483 88.451 69.8006 87.8562 70.2255C87.6863 70.3529 87.5588 70.183 87.6438 70.098Z" fill="#FBFBFB"/>
<path d="M122.438 35.8137C148.225 85.4771 102.895 141.513 48.8562 127.833C24.598 121.801 5.09803 100.771 1.06208 76.0883C-3.52615 51.5327 7.56208 25.1503 28.2941 11.2582C56.7157 -8.2843 96.098 -1.7843 116.448 26.17C116.575 26.2974 116.533 26.5098 116.363 26.6373C116.235 26.7647 116.023 26.7222 115.895 26.5523C113.091 22.9412 109.905 19.67 106.422 16.7386C100.686 11.853 93.9738 8.02943 86.8791 5.43793C50.768 -7.64704 11.1307 14.1046 3.22875 51.8726C-5.69282 94.1863 30.2908 133.144 73.1993 127.324C106.294 123.16 130.892 92.6144 128.173 59.3922C127.578 51.3628 125.454 43.4183 121.928 36.1111C121.843 35.9837 121.928 35.8137 122.056 35.7288C122.183 35.6438 122.353 35.6863 122.438 35.8137Z" fill="#FBFBFB"/>
</g>
</svg>
