<svg width="130" height="130" viewBox="0 0 130 130" fill="none" xmlns="http://www.w3.org/2000/svg">
<mask id="mask0_316_1697" style="mask-type:alpha" maskUnits="userSpaceOnUse" x="0" y="0" width="130" height="130">
<circle cx="64.7869" cy="64.7869" r="64.7869" fill="#D9D9D9"/>
</mask>
<g mask="url(#mask0_316_1697)">
<path d="M100.304 118.274C100.007 118.487 99.6667 118.699 99.3693 118.912C99.0295 119.124 98.7321 119.337 98.3922 119.506C98.0948 119.676 97.8399 119.846 97.5425 120.016C97.5001 120.059 97.4576 120.059 97.4151 120.101C96.438 120.696 95.4184 121.248 94.3988 121.758C94.1014 121.928 93.7615 122.098 93.4641 122.225C93.4641 122.225 93.4216 122.268 93.3792 122.268C93.0393 122.438 92.6994 122.608 92.3595 122.778C91.6798 123.118 90.9576 123.415 90.2778 123.712C89.938 123.882 89.5556 124.01 89.2158 124.137C88.8759 124.265 88.4935 124.435 88.1537 124.562C87.8138 124.69 87.4314 124.859 87.0916 124.987C87.0916 124.987 87.0916 124.987 87.0491 124.987C86.7092 125.114 86.3269 125.242 85.987 125.369C85.2223 125.624 84.4151 125.879 83.6504 126.134C83.3955 126.219 83.0981 126.304 82.8432 126.389C82.036 126.644 81.2288 126.856 80.4216 127.026C80.1243 127.111 79.8269 127.154 79.487 127.239C78.7223 127.408 77.9151 127.578 77.1504 127.748C76.9805 127.791 76.853 127.791 76.6831 127.833C76.4282 127.876 76.1308 127.918 75.8759 127.961C75.4935 128.003 75.1537 128.088 74.7713 128.131C74.6014 128.173 74.4314 128.173 74.2615 128.216C74.0491 128.258 73.7942 128.301 73.5393 128.301C72.8595 128.386 72.1373 128.471 71.4576 128.556C71.2452 128.598 70.9903 128.598 70.7779 128.64H70.7354C70.438 128.683 70.1406 128.683 69.8432 128.725C69.5458 128.768 69.2484 128.768 68.9511 128.768C68.7811 128.768 68.5687 128.81 68.3988 128.81C68.0589 128.81 67.7615 128.853 67.4641 128.853C67.0393 128.853 66.6569 128.895 66.2321 128.895C65.8073 128.895 65.4249 128.895 65.0001 128.895C64.7027 128.895 64.4053 128.895 64.1079 128.895C46.1798 128.64 30.0785 121.036 18.5654 108.971C18.5654 108.971 18.5654 108.928 18.5229 108.928C17.2484 107.781 18.353 101.663 23.4935 97.7973C29.9511 92.9117 45.4151 89.8529 45.4151 89.8529C45.4151 89.8529 51.4053 88.8758 73.6243 93.5065C86.6243 96.2255 96.5229 100.176 102.046 110.882C103.193 113.091 104.34 116.49 100.304 118.274Z" fill="#26547C"/>
<path d="M73.7517 93.0392C81.9085 94.696 90.6177 96.4804 97.3301 101.876C99.5817 103.703 101.069 106.379 102.301 108.971C102.895 110.245 103.49 111.562 103.958 112.964C104.212 113.899 104.595 114.961 104.382 116.065C104.34 116.363 104.085 116.745 103.873 116.957C102.895 117.935 101.833 118.529 100.771 119.294C94.5262 123.627 87.3465 126.686 79.9118 128.301C63.3432 131.912 45.4151 129.108 30.8432 120.399C26 117.467 21.5393 113.899 17.7157 109.693C17.2909 109.183 17.2909 108.333 17.2909 107.781C17.3334 106.506 17.6732 105.274 18.0981 104.127C19.1177 101.493 20.4347 98.8594 22.6863 97.0326C24.3007 95.9281 26.0425 94.9934 27.8268 94.2287C33.4347 91.8496 39.3399 90.1928 45.4151 89.513C45.9249 89.4705 46.0098 90.1928 45.5 90.2777C39.6798 91.4673 33.902 93.2516 28.5066 95.6732C26.5523 96.6503 24.4706 97.5 22.8987 99.0294C21.4118 100.644 20.3497 102.64 19.5 104.68C18.9478 105.912 18.5654 107.866 18.7353 108.843C21.4118 112.029 24.5556 114.833 27.9543 117.255C46.5621 130.255 74.8138 131.105 94.6112 120.271C96.3955 119.294 98.1373 118.19 99.7942 117.042C100.601 116.49 101.451 116.023 102.088 115.386C102.131 115.343 102.088 115.386 102.088 115.428C102.088 115.471 102.046 115.513 102.046 115.513C102.088 115.003 101.918 114.323 101.706 113.644C100.941 111.18 99.7092 108.588 98.3922 106.337C96.3105 102.98 92.7844 100.856 89.2157 99.1568C86.7517 98.0098 84.1602 97.1176 81.5262 96.2679C78.8922 95.4183 76.2157 94.696 73.5393 94.0588C72.8595 93.8888 73.0719 92.9117 73.7517 93.0392Z" fill="#FBFBFB"/>
<path d="M114.409 144.614H6.96741C6.96741 144.614 8.24192 126.092 14.6994 112.029C16.9936 107.059 18.7779 99.8366 22.9837 96.5654C27.8269 92.8268 37.3857 90.4902 40.7844 89.8105C43.2909 89.3007 43.6308 89.768 45.3726 89.3007C45.3726 89.5131 45.4151 89.683 45.4151 89.8954C45.4151 89.8954 50.0034 103.533 61.9413 108.376C71.67 112.327 77.4478 109.693 78.34 105.317C78.8922 102.513 77.1504 97.9248 76.2583 96.4379C75.7485 96.0131 75.4086 95.3758 75.2387 94.7386L74.8988 93.3366C75.706 93.1667 76.4707 92.9543 77.2354 92.6994C77.4903 92.6144 77.7027 92.5294 77.9576 92.4445C84.1177 94.1863 91.5949 97.3301 98.1373 102.301C101.706 105.02 104.68 112.029 108.333 123.882C112.624 137.52 114.409 144.614 114.409 144.614Z" fill="#FBFBFB"/>
<path d="M81.8238 103.108C81.6964 101.918 81.484 100.856 81.2715 99.9215C80.3794 95.7581 77.7029 92.1045 77.7029 92.1045C77.7029 92.1045 70.9905 87.4738 60.6245 86.2418C50.2585 85.0098 45.2029 86.2418 45.2029 86.2418C44.4382 86.4967 43.5036 87.0065 42.6539 87.4738C41.1245 88.366 39.8925 89.6405 39.1277 91.2124C39.1277 91.2549 39.0853 91.2549 39.0853 91.2973C37.9807 94.4836 43.6735 106.252 58.3304 112.837C73.4545 119.634 82.8434 111.689 81.8238 103.108Z" fill="#FBFBFB"/>
<path d="M28.0395 169.383C27.4872 156.935 27.2323 143.807 27.0624 131.317C26.9774 126.474 26.765 121.588 27.9545 116.83C29.7813 108.886 35.3042 101.451 43.2062 98.8597L42.9088 99.1571C43.8009 96.9054 44.7781 94.3989 46.9447 93.0819C47.0297 93.0394 47.0722 93.1669 47.0297 93.2094C45.5428 94.229 44.7356 95.9708 44.0558 97.6277C43.8009 98.18 43.6735 98.8597 43.4186 99.3695C40.4447 100.474 37.8107 102.386 35.6441 104.637C33.4774 106.932 31.7356 109.651 30.5885 112.582C29.1016 116.278 28.4643 120.229 28.3369 124.18C28.2519 139.092 28.6768 154.853 28.0395 169.383Z" fill="#26547C"/>
<path d="M46.9446 169.382C46.0949 161.608 45.5851 153.621 45.5001 145.804C45.4151 138.624 45.6276 131.232 46.4772 124.095C46.9446 119.931 48.4315 110.415 51.5328 107.654L51.8727 107.399C52.0851 107.314 52.1276 107.229 52.4249 107.186L52.0001 107.611C52.2125 105.997 52.8073 104.467 53.657 103.108C53.9544 102.683 54.2517 102.258 54.5916 101.833C54.6341 101.791 54.7615 101.833 54.6766 101.918C54.3792 102.343 54.0818 102.768 53.8694 103.235C53.1472 104.595 52.6374 106.082 52.5099 107.611C52.5099 107.654 52.4674 107.654 52.4674 107.696C52.2125 107.781 51.9151 107.993 51.7027 108.248C51.0655 108.928 50.6406 109.905 50.2583 110.755C49.6635 112.242 49.2387 113.856 48.8988 115.471C48.0491 119.591 47.5818 123.925 47.2419 128.131C46.7746 135.183 46.6047 142.66 46.6047 149.712L46.6472 153.663C46.6472 158.889 46.9021 164.157 47.0295 169.382C47.072 169.425 46.9446 169.467 46.9446 169.382Z" fill="#26547C"/>
<path d="M64.4052 169.382C64.4477 156.425 63.8954 143.425 63.8529 130.467C63.8104 124.605 63.8104 118.572 63.9379 112.709C64.3202 111.18 64.6176 109.565 64.7451 107.951C64.7876 107.441 64.7876 106.889 64.7451 106.337C64.7451 106.252 64.8725 106.252 64.8725 106.337C65.2124 108.461 64.9575 110.628 64.5327 112.752C64.7026 117.382 64.8725 122.183 64.9575 126.899C65.2549 137.52 65.3398 148.141 65.0849 158.762C65.0425 160.801 64.915 163.817 64.7876 165.856C64.7026 167.046 64.5751 168.193 64.4902 169.382C64.4902 169.425 64.4477 169.425 64.4052 169.425V169.382Z" fill="#26547C"/>
<path d="M84.2877 169.382C83.9054 159.569 83.6505 149.288 82.8008 139.516C82.291 133.314 81.4838 127.196 80.2942 121.121C79.572 117.467 78.6374 113.771 77.1505 110.33C76.8956 108.376 76.2583 106.252 74.7289 104.892C74.6864 104.85 74.6864 104.807 74.7289 104.807C74.7714 104.765 74.7714 104.765 74.8139 104.807C75.2387 105.105 75.621 105.487 75.9609 105.912C76.8956 107.144 77.4903 108.843 77.7027 110.245C79.4446 113.601 80.4217 117.255 81.3139 120.909C81.8661 123.288 82.3759 125.879 82.7583 128.258C83.3106 131.657 83.8204 135.99 84.0753 139.431C84.2877 141.513 84.4152 144.784 84.5426 146.909C84.7125 151.922 84.755 156.892 84.6701 161.905L84.4576 169.382C84.4576 169.425 84.4152 169.425 84.3727 169.425C84.3302 169.425 84.2877 169.382 84.2877 169.382Z" fill="#26547C"/>
<path d="M100.261 169.34C101.323 157.699 100.899 145.889 99.2417 134.333C98.8169 131.317 98.1796 128.173 97.4999 125.199C96.6927 122.268 95.7156 119.294 94.3986 116.575C93.464 114.493 92.2319 112.497 90.9999 110.585C89.3006 108.163 87.1339 105.657 84.7973 103.83C83.6077 102.853 82.3332 101.918 80.9738 101.239C80.294 100.346 79.8692 99.4542 78.8921 98.6046C78.1274 97.8823 77.1927 97.2876 76.1306 97.2451C76.0881 97.2451 76.0457 97.2026 76.0457 97.1601C76.0457 97.1176 76.0881 97.1176 76.0881 97.1176C76.6404 97.0752 77.1927 97.2451 77.7025 97.4575C79.1894 98.1797 80.294 99.4967 81.1862 100.856C87.0914 103.618 91.7646 109.225 94.8659 115.003C96.0979 117.467 97.2025 120.016 97.9672 122.65L98.647 124.902C100.686 133.314 101.493 141.98 101.621 150.605C101.663 156.892 101.323 163.18 100.346 169.382C100.346 169.425 100.304 169.425 100.261 169.425C100.261 169.425 100.261 169.382 100.261 169.34Z" fill="#26547C"/>
<path d="M81.144 120.484C87.0918 120.696 91.5101 118.784 92.1898 112.369C92.2323 111.859 92.6146 111.477 93.082 111.392C95.6735 110.755 97.4153 108.461 97.9251 105.869C98.0525 105.444 98.095 104.892 98.18 104.467C98.2225 104 98.265 103.49 98.3074 102.98C98.3074 102.938 98.3499 102.938 98.3924 102.938C98.4349 102.938 98.4349 102.98 98.4349 102.98C98.5199 103.873 98.6048 105.062 98.5199 105.954C98.3499 108.971 96.3532 111.817 93.3369 112.624L93.4218 112.539C93.082 117.255 90.1931 120.696 85.3499 120.993C83.948 121.121 82.5035 120.993 81.1016 120.654C81.0591 120.654 81.0591 120.611 81.0591 120.569C81.0591 120.484 81.1016 120.484 81.144 120.484Z" fill="#26547C"/>
<path d="M21.7942 100.899C22.2615 103.32 23.6635 105.699 25.7877 106.974C25.9576 107.101 26.34 107.271 26.5099 107.399C26.8922 107.569 27.3171 107.739 27.6994 107.866L28.5066 108.078C28.719 108.163 29.1014 108.206 29.3563 108.248L30.206 108.376C31.0556 108.503 32.3726 108.036 32.7975 109.013C35.6014 114.961 41.0818 119.464 47.9641 118.147C48.389 118.105 48.8138 118.275 48.9837 118.657C49.3661 119.252 49.8759 119.889 50.3432 120.441C52.7648 123.33 56.4184 125.454 60.2844 124.647C61.8138 124.35 63.3007 123.712 64.6602 122.863C64.7027 122.82 64.7452 122.863 64.7452 122.863C58.755 127.833 52.0426 125.199 47.9641 119.252L48.0916 119.294C46.3922 119.592 44.6504 119.676 42.9086 119.337C37.8105 118.402 33.902 114.069 31.8628 109.353L31.9478 109.395C31.0556 109.353 30.0785 109.31 29.1864 109.098C28.9315 109.056 28.5066 108.971 28.2942 108.886C27.7844 108.758 27.0197 108.461 26.5524 108.206L26.1275 107.993L25.7452 107.739C25.5752 107.611 25.1504 107.399 24.9805 107.229C23.0262 105.699 21.8792 103.278 21.6243 100.856C21.6243 100.814 21.6668 100.771 21.6668 100.771C21.7942 100.856 21.7942 100.856 21.7942 100.899Z" fill="#26547C"/>
<path d="M79.6995 115.343C84.7975 113.984 87.304 111.01 86.5393 105.657C86.4969 105.317 86.5818 104.977 86.7942 104.765C88.1962 103.108 88.5786 100.856 88.3661 98.732C88.3237 98.0523 88.0688 97.0751 87.9413 96.3954C87.9413 96.3529 87.9413 96.3104 87.9838 96.3104C88.0263 96.3104 88.0263 96.3104 88.0688 96.3529C88.4086 97.0751 88.7485 97.8398 88.9609 98.6045C89.3857 100.176 89.3857 101.876 88.8759 103.405C88.621 104.17 88.2387 104.935 87.7289 105.572L87.7714 105.487C88.4936 109.31 87.2191 113.261 83.3531 114.748C82.206 115.216 80.974 115.471 79.742 115.513C79.6145 115.471 79.6145 115.343 79.6995 115.343Z" fill="#26547C"/>
<path d="M31.6929 94.4412C31.0132 96.6503 31.7779 99.1144 33.4347 100.686L33.6472 100.941L33.9021 101.154C34.4119 101.578 35.0066 101.961 35.5589 102.343L36.7485 102.98C37.0034 103.108 37.1733 103.363 37.2158 103.66C38.0655 106.846 40.657 109.353 43.5883 110.712C45.4576 111.69 47.4968 112.157 49.536 112.539C50.1308 112.667 50.3008 113.219 50.7256 113.601C51.1929 114.069 51.7027 114.536 52.2125 114.961C55.3138 117.595 59.4772 118.997 63.5557 118.444L64.6178 118.317C64.6602 118.317 64.7027 118.317 64.7027 118.359C64.7027 118.402 64.7027 118.402 64.6602 118.444C60.5393 119.719 55.9936 118.912 52.4249 116.448C51.3628 115.725 49.8759 114.493 49.2811 113.686C46.4347 113.219 43.5459 112.369 41.1668 110.712C38.8726 109.183 36.621 106.294 36.3236 103.788C35.6014 103.363 34.5393 102.683 33.9021 102.173C33.7746 102.088 33.2223 101.536 33.0949 101.408C32.8825 101.154 32.5851 100.856 32.4151 100.559C31.1406 98.7745 30.7158 96.3529 31.6079 94.3137C31.6079 94.2712 31.6504 94.2712 31.6929 94.2712C31.7354 94.3562 31.7354 94.3987 31.6929 94.4412Z" fill="#26547C"/>
<path d="M39.1275 91.2549C39.0425 93.2091 39.7648 95.1634 41.0393 96.6078C41.2942 96.9477 41.719 97.3301 42.0589 97.6274C42.1863 97.7124 42.6112 98.0523 42.7386 98.1372C43.1635 98.4771 43.9282 98.647 43.9706 99.2418C44.0981 100.176 44.5654 101.154 45.1177 101.918C46.8595 104.467 49.8759 105.827 52.8072 106.676C53.0622 106.761 53.2321 106.889 53.3595 107.101C55.951 110.373 60.2419 112.072 64.3628 111.647C65.085 111.69 65.7223 112.072 66.487 112.199C68.1014 112.624 69.8857 112.837 71.5425 112.709C73.7517 112.624 75.7909 111.69 76.8955 109.778C77.1079 109.48 77.4053 109.438 77.6602 109.225C78.8497 108.418 79.8269 107.314 80.4216 105.997C81.1863 104.425 81.0164 102.641 80.5916 101.026C80.6765 100.346 80.804 99.5817 80.7615 98.817C80.719 96.6928 79.8693 94.6111 78.5099 92.9542C78.4249 92.9118 78.5523 92.7843 78.5948 92.8693C80.719 94.951 81.6961 98.0523 81.2713 100.984C82.6308 104.51 81.0589 108.376 77.7452 110.415C76.7256 112.412 74.0491 113.814 71.67 113.899C69.3334 114.111 66.5295 113.601 64.5327 112.922C59.987 113.389 55.2288 111.435 52.4674 107.739L52.5099 107.781C51.5752 107.484 50.3007 107.016 49.451 106.591C49.2386 106.464 48.5589 106.124 48.3465 105.997C48.0916 105.827 47.5393 105.487 47.3269 105.317L46.6896 104.807C44.9903 103.405 43.6308 101.493 43.3334 99.2843L43.3759 99.3693C43.036 99.1144 42.6961 98.9019 42.3988 98.647L41.9314 98.2647L41.719 98.0523C41.5066 97.8399 41.2942 97.585 41.0818 97.415C40.6994 96.9477 40.317 96.4379 40.0197 95.9281C39.255 94.5261 38.8726 92.8693 39.085 91.2549C39.085 91.2124 39.1275 91.2124 39.17 91.2124C39.085 91.2124 39.1275 91.2124 39.1275 91.2549Z" fill="#26547C"/>
<path d="M75.507 118.047C75.5212 116.827 74.5627 115.827 73.3662 115.813C72.1697 115.799 71.1883 116.777 71.1741 117.997C71.1599 119.216 72.1184 120.217 73.3149 120.231C74.5114 120.245 75.4928 119.267 75.507 118.047Z" fill="#26547C"/>
<path d="M78 123.797C78.2974 126.049 76.8105 128.131 74.6863 128.386C72.5621 128.64 70.6079 127.069 70.3105 124.774C70.0131 122.523 71.3726 119.421 73.4968 119.124C75.6209 118.869 77.7026 121.503 78 123.797Z" fill="#26547C"/>
<path d="M72.4769 121.078C71.3723 121.97 68.3985 122.055 67.2089 121.206C65.722 120.059 67.2939 116.278 68.3135 115.088C68.356 115.046 68.441 115.046 68.441 115.131L68.0586 117.595C67.9736 118.402 67.8037 119.251 67.8887 120.016C67.8887 120.186 68.0586 120.271 68.2285 120.314C69.3756 120.738 70.6076 120.866 71.8397 120.993C72.0096 120.993 72.307 121.036 72.4344 120.951C72.4344 120.993 72.4769 121.036 72.4769 121.078Z" fill="#26547C"/>
<path d="M72.1373 123.585C70.5229 124.732 68.7386 125.242 66.7419 125.029C66.6144 125.029 66.3595 124.944 66.232 124.902C64.1928 124.222 63.5131 121.716 63.9379 119.804C63.9379 119.719 64.0229 119.676 64.0654 119.761C64.5327 121.248 65.17 123.415 66.9118 123.712C67.7615 123.84 68.6536 123.797 69.5033 123.712C70.353 123.627 71.2451 123.542 72.0948 123.373C72.1798 123.415 72.2222 123.5 72.1373 123.585C72.1798 123.542 72.1373 123.585 72.1373 123.585Z" fill="#26547C"/>
<path d="M71.5425 125.667C70.6078 126.091 69.7582 126.431 69.0784 126.856C68.5686 127.196 68.2288 127.451 68.0163 128.003C67.7614 128.683 67.8039 129.49 67.8464 130.425C67.9314 131.274 68.0588 132.209 68.1013 133.229C68.1013 133.271 68.0163 133.314 67.9739 133.271C66.6144 131.104 65.3824 126.941 68.6961 125.921C69.5882 125.624 70.5654 125.539 71.5 125.582C71.6275 125.539 71.6275 125.667 71.5425 125.667Z" fill="#26547C"/>
<path d="M72.6046 127.026C72.4347 128.131 72.0098 128.895 72.3497 129.745C72.9445 130.977 73.4543 132.252 73.4543 133.738C73.4543 133.781 73.3693 133.823 73.3693 133.781C72.987 133.271 72.6046 132.719 72.2223 132.167C71.7549 131.317 71.0327 130.467 71.0327 129.448C71.0752 128.428 71.7549 127.536 72.4772 126.899C72.6046 126.856 72.6471 126.941 72.6046 127.026Z" fill="#26547C"/>
<path d="M75.026 120.653C75.2384 120.441 75.7057 120.059 75.9606 119.846C76.6403 119.294 77.575 118.699 78.2547 118.147C78.2972 118.104 78.3397 118.062 78.2972 118.147C78.2547 118.189 78.2122 118.274 78.1697 118.359C78.1273 118.487 78.0848 118.572 78.1273 118.699C77.7449 117.17 77.2776 115.683 77.3626 114.026V113.984C77.3626 113.941 77.4475 113.899 77.49 113.941C78.0423 115.046 78.5946 116.193 79.0194 117.34C79.1893 117.765 79.4018 118.232 79.4018 118.742C79.3593 118.954 79.1894 119.039 79.0619 119.167C78.5521 119.549 77.9573 119.804 77.405 120.059C77.1076 120.186 74.8985 121.121 74.9835 120.696C74.9835 120.653 75.026 120.653 75.026 120.653Z" fill="#26547C"/>
<path d="M75.9182 122.948C77.4476 121.97 79.2319 121.546 80.7613 120.908C81.1861 120.653 81.3986 120.229 81.6535 119.719C82.0358 119.039 82.3332 118.189 82.758 117.297C82.758 117.255 82.8005 117.255 82.843 117.255C82.9705 118.572 82.8005 120.016 82.1208 121.206C81.3986 122.438 79.7842 122.523 78.5097 122.778C77.6175 122.905 76.7678 123.033 75.8757 123.075C75.8332 123.075 75.8332 122.99 75.9182 122.948Z" fill="#26547C"/>
<path d="M76.9801 124.817C80.2938 122.055 84.3298 124.222 83.6075 128.555C83.4376 129.575 83.0553 130.552 82.333 131.359C82.2905 131.402 82.2056 131.359 82.2056 131.317C82.333 130.85 82.418 130.425 82.4605 129.957C82.8853 126.814 82.0781 124.137 78.3396 124.689C77.8722 124.732 77.4049 124.817 76.9801 124.944C76.9376 124.987 76.8951 124.859 76.9801 124.817Z" fill="#26547C"/>
<path d="M76.3854 126.431C77.8724 126.261 79.4867 127.408 79.5292 129.065C79.4443 130.765 78.6795 132.294 77.2776 133.314C77.2351 133.356 77.1501 133.356 77.1501 133.271C77.575 132.039 77.9998 130.807 78.2122 129.533C78.3822 128.895 78.2122 128.3 77.7874 127.791C77.405 127.323 76.8952 126.899 76.3429 126.559C76.258 126.474 76.3005 126.389 76.3854 126.431Z" fill="#26547C"/>
<path d="M77.7448 104.34C76.8527 108.716 71.0749 111.35 61.3461 107.399C51.235 103.32 46.8592 93.5915 45.7546 90.7026C51.7448 79.4869 47.5814 71.7124 47.5814 71.7124C61.3886 70.5229 73.454 86.6667 73.454 86.6667L75.3233 94.6536C75.4932 95.3333 75.8331 95.9281 76.3429 96.353C77.235 97.9249 78.2971 101.536 77.7448 104.34Z" fill="#26547C"/>
<path d="M45.5424 90.83C46.3496 89.598 46.8594 88.1536 47.1992 86.7516C47.8365 83.8202 48.0489 80.8464 48.0914 77.8725V76.7679C47.9639 75.6634 47.5816 74.5163 47.1568 73.4967C46.6045 72.1372 48.6012 71.2876 49.2385 72.647C49.3234 72.817 49.3234 73.1144 49.3234 73.2843C49.4509 79.0621 49.7058 86.4967 46.0522 91.2974C45.7973 91.5523 45.2875 91.1699 45.5424 90.83Z" fill="#FBFBFB"/>
<path d="M73.9214 86.5818C74.5587 86.9642 74.7711 87.474 74.856 87.9838C75.1109 89.0034 75.026 90.108 75.2809 91.1701C75.4933 92.1897 76.1305 93.1668 76.3005 94.2289C76.5129 95.3334 77.1502 97.6701 77.4051 98.8171C77.49 99.072 77.3201 99.3694 77.0227 99.4119C76.8528 99.4544 76.7253 99.4119 76.5979 99.3269C76.0456 98.8596 75.7907 98.3923 75.4508 97.7975C74.8985 96.7779 74.5162 95.8432 74.1763 94.6962C73.8789 93.6766 74.0064 92.572 73.7515 91.5099C73.539 90.4903 72.9443 89.5132 72.7319 88.4511C72.6044 87.9413 72.5619 87.389 72.9443 86.7518C73.1992 86.4968 73.624 86.4119 73.9214 86.5818Z" fill="#FBFBFB"/>
<path d="M76.9803 97.7975C68.866 97.3726 62.2385 94.8236 55.781 83.3105C61.2189 88.1112 67.6339 89.938 74.3888 90.7877L75.281 94.6962C75.4509 95.3759 76.4705 97.3726 76.9803 97.7975Z" fill="#FBFBFB"/>
<path d="M76.6406 96.2255C78.0851 98.9445 78.9347 102.343 78.0426 105.36C77.3628 107.484 75.4086 109.056 73.2844 109.65C68.3563 110.967 62.6635 108.886 58.2877 106.549C52.8922 103.533 48.8988 98.4772 46.3498 92.9543C46.1798 92.5295 46.7746 92.1896 47.0295 92.6144C47.9217 94.3987 48.9413 96.1406 50.0883 97.7125C51.2354 99.3268 52.5524 100.814 54.0393 102.131C58.3726 106.039 64.2354 108.461 70.0981 108.461C76.1308 108.291 78.4249 105.105 77.023 99.2419C76.8106 98.3072 76.4707 97.3301 76.0034 96.5229C75.7485 96.183 76.3857 95.8007 76.6406 96.2255Z" fill="#FBFBFB"/>
<path d="M93.0817 45.2026C93.8464 48.7713 94.2287 51.6601 92.147 61.1765C90.1078 70.6503 95.0784 72.6046 83.3104 87.7712C78.5098 93.9739 66.8692 92.232 57.4379 85.817C54.2516 83.6503 52.8921 78.085 50.513 74.134C48.6438 71.0327 47.7941 74.2614 45.33 71.585C41.9738 67.9314 37.9379 60.5817 39.9346 47.5817C43.1634 26.5098 59.8594 24.0458 72.2222 26.3824C84.6699 28.7615 91.0425 35.8137 93.0817 45.2026Z" fill="#26547C"/>
<path d="M47.4542 75.3661C46.477 73.7092 45.2025 72.2648 44.013 70.7353C42.8659 69.1634 41.9313 67.4216 41.1666 65.6373C36.111 53.2321 38.0653 35.7713 50.4705 28.4641C55.611 25.4902 61.8136 24.768 67.5914 25.2353C79.9542 26.1275 91.2973 31.8203 93.9738 44.9053C95.4182 50.6831 93.464 56.6308 92.3594 62.2811C91.8496 65.085 92.2744 67.9739 92.2319 70.8628C92.1895 73.7942 91.3823 76.7255 90.2777 79.4445C89.5979 81.3138 88.4084 82.9706 87.1764 84.5C85.1372 86.9641 83.0979 89.4706 80.5064 91.3824C79.9117 91.8072 78.8496 92.0197 78.1274 92.1046C76.1306 92.402 74.1764 92.487 72.1796 92.3595C64.3627 92.0197 55.9934 88.2386 52.8496 80.6765C52.7221 80.3791 53.147 80.1667 53.3169 80.4216C57.3953 86.8791 64.8725 90.0654 72.3071 90.4902C74.6012 90.6177 76.9378 90.5752 79.1894 90.1079C80.294 89.5556 81.2712 88.5785 82.2058 87.6863C84.4999 85.3922 86.8365 82.9282 88.4934 80.1242C90.4901 76.3432 91.5947 72.2223 91.2548 67.9314C91.1698 66.0197 91.1274 64.0229 91.5097 62.1112C91.8496 60.1994 92.2744 58.3726 92.5293 56.4184C92.7842 54.5491 92.9117 52.6373 92.9117 50.768C92.6993 45.2876 90.9149 39.6373 87.4313 35.3889C79.7417 25.8301 61.5587 23.3236 51.3202 29.8661C44.8627 33.8595 41.8463 41.3367 40.8692 48.6014C39.3823 57.3105 39.8071 65.8922 46.7319 72.2223L48.7712 74.3465C49.5783 75.2811 48.1339 76.3857 47.4542 75.3661Z" fill="#FBFBFB"/>
<path d="M52.4671 61.8562C52.4671 61.8562 51.1501 55.4837 44.9475 56.2484C39.5945 56.9281 37.7252 69.7582 49.8756 73.3268" fill="#26547C"/>
<path d="M49.3234 67.7615C48.3463 67.2092 47.6665 66.2746 47.624 65.1275C47.6665 64.2779 47.794 63.3007 47.5816 62.4511C47.4541 61.6439 46.6044 61.4315 45.9672 61.4739C45.2874 61.6014 44.8626 62.4511 44.7352 63.1308C44.7352 63.1733 44.6927 63.3007 44.6927 63.3432C44.6502 63.5556 44.3103 63.5556 44.2254 63.3432C43.6731 61.6864 44.9051 59.8596 46.6894 60.072C49.1959 60.2419 49.5358 62.8759 49.0685 64.8726C48.8136 65.7223 49.1535 66.487 49.6208 67.2092L49.7057 67.3367C49.9182 67.5916 49.5783 67.9315 49.3234 67.7615Z" fill="#FBFBFB"/>
<path d="M83.3102 57.3529C83.9475 60.3693 85.137 63.1732 86.6239 65.8072C87.9409 69.0359 84.5422 72.0947 81.5259 71.9673C81.186 71.9673 81.1436 71.5 81.4409 71.415C83.3527 70.8202 85.0945 69.5457 85.3919 67.5915C85.5194 66.9967 85.3494 66.4869 85.0521 65.9771C83.6501 63.3431 82.8004 60.3268 83.0128 57.3529C83.0128 57.1405 83.3102 57.1405 83.3102 57.3529Z" fill="#FBFBFB"/>
<path d="M52.2548 61.8987C51.2776 59.3922 49.1535 57.0131 46.3071 57.0556C46.0522 57.0131 45.6273 57.0981 45.3724 57.0981C44.6502 57.1406 44.0554 57.3955 43.5031 57.9053C40.7842 60.6242 41.2515 65.4249 43.4607 68.4412C44.2254 69.5033 45.2025 70.4379 46.3071 71.2027C47.4116 71.9674 48.6437 72.5621 49.9607 73.0719C50.258 73.1569 50.1306 73.6242 49.8332 73.5817C46.9868 72.987 44.2678 71.585 42.3986 69.2484C39.5097 65.7647 38.9149 59.9445 42.3561 56.5458C43.1208 55.866 44.1829 55.3562 45.245 55.3562C45.5848 55.3562 46.0946 55.2713 46.4345 55.3562C48.2188 55.4412 49.9182 56.3334 51.0227 57.7353C51.9999 58.9249 52.5522 60.3693 52.7221 61.8138C52.7221 62.0687 52.3397 62.1536 52.2548 61.8987Z" fill="#FBFBFB"/>
<path d="M80.0817 76.2157C77.3628 78.8072 72.2223 76.7255 70.8628 73.5817C70.6929 73.1994 71.1177 72.8595 71.4576 73.0294C72.1798 73.4118 72.817 73.7941 73.4968 74.0915C75.451 74.9837 77.4902 75.7059 79.6569 75.4935C80.0817 75.4085 80.3791 75.9183 80.0817 76.2157Z" fill="#FBFBFB"/>
<path d="M67.4641 61.6863C66.4445 61.6438 65.6798 60.7941 65.7647 59.7745L65.8072 58.5849C65.8497 57.5653 66.6994 56.8006 67.719 56.8856C68.7386 56.9281 69.5033 57.7778 69.4183 58.7974L69.3759 59.9869C69.3334 60.964 68.4837 61.7287 67.4641 61.6863Z" fill="#FBFBFB"/>
<path d="M85.3497 62.3235C84.415 62.281 83.6928 61.4739 83.7353 60.5392L83.7778 59.4346C83.8203 58.5 84.6275 57.7778 85.5621 57.8203C86.4967 57.8627 87.219 58.6699 87.1765 59.6046L87.134 60.7091C87.0915 61.6438 86.2843 62.366 85.3497 62.3235Z" fill="#FBFBFB"/>
<path d="M71.2877 59.3921C69.8858 58.4574 68.3563 57.8202 66.657 58.16C66.1047 58.245 65.5524 58.4149 65.2126 58.7973C65.0851 58.9672 64.7877 58.9248 64.7877 58.6698C64.8302 57.8202 65.5524 57.2679 66.2322 56.928C67.5492 56.2483 69.376 56.3757 70.5655 57.2679C70.9903 57.5228 72.4348 59.0947 71.6701 59.4345C71.5001 59.5195 71.4152 59.477 71.2877 59.3921Z" fill="#FBFBFB"/>
<path d="M83.438 59.6045C83.438 57.8202 85.6471 57.183 87.0066 57.8202C87.7713 58.1601 88.3236 58.8398 88.536 59.647C88.621 59.9019 88.2386 60.1143 88.0687 59.9019C87.3465 59.0522 86.1145 58.6274 85.1373 59.1372C84.84 59.3071 84.7975 59.4346 84.7125 59.6045C84.7125 60.4542 83.4805 60.4117 83.438 59.6045Z" fill="#FBFBFB"/>
<path d="M73.3269 52.3824C74.219 52.6797 75.1112 51.8726 74.9413 50.8954C74.8563 50.3856 74.6439 49.8758 74.219 49.4935C72.9445 48.3464 67.6765 47.3268 64.4903 48.8137C61.6864 50.1732 69.2484 51.0229 73.3269 52.3824Z" fill="#FBFBFB"/>
<path d="M86.0296 53.062C85.3074 53.3169 84.5427 52.5522 84.6701 51.6601C84.7126 51.1927 84.8826 50.7254 85.2224 50.3856C86.242 49.3659 89.7257 48.5588 91.9349 50.1307C93.8466 51.4476 89.3433 51.83 86.0296 53.062Z" fill="#FBFBFB"/>
<path d="M97.2451 36.281C95.036 17.4183 76.3007 11.0457 79.9118 23.6209C79.9118 23.6209 74.9837 15.7189 63.8955 15.2941C54.3791 14.9542 60.1569 21.7091 60.1569 21.7091C60.1569 21.7091 52.7647 17.4608 40.2321 23.8333C29.3138 29.3987 39.4249 34.2843 39.4249 34.2843C39.4249 34.2843 31.183 38.6601 31.0556 48.0915C31.0131 50.5555 33.0523 54.3366 37.8955 53.1045C36.6634 62.4934 42.3987 70.183 45.0327 73.3268C48.4314 77.4052 48.7288 80.5065 48.7288 80.5065C50.4706 79.5294 48.4314 75.1536 48.4739 72.8594C37.853 68.781 39.7647 56.9281 44.9477 56.2483C50.3857 55.5686 52.085 60.4117 52.3824 61.6013C53.2745 60.5392 53.5294 56.4183 54.0392 52.0424C55.6111 51.5326 57.0131 50.9804 58.1602 50.2581C62.6634 47.5817 64.7876 42.9509 69.3758 40.232C77.4053 35.4313 79.487 46.2647 83.7778 42.2712C88.7484 37.683 92.3595 41.3366 93.4641 46.9869C93.8889 49.0261 96.4804 48.8562 96.8628 46.817C97.4576 43.8431 97.7124 40.2745 97.2451 36.281Z" fill="#FBFBFB"/>
<path d="M122.438 35.8137C148.225 85.4771 102.895 141.513 48.8562 127.833C24.598 121.801 5.09803 100.771 1.06208 76.0883C-3.52615 51.5327 7.56208 25.1503 28.2941 11.2582C56.7157 -8.2843 96.098 -1.7843 116.448 26.17C116.575 26.2974 116.533 26.5098 116.363 26.6373C116.235 26.7647 116.023 26.7222 115.895 26.5523C113.091 22.9412 109.905 19.67 106.422 16.7386C100.686 11.853 93.9738 8.02943 86.8791 5.43793C50.768 -7.64704 11.1307 14.1046 3.22875 51.8726C-5.69282 94.1863 30.2908 133.144 73.1993 127.324C106.294 123.16 130.892 92.6144 128.173 59.3922C127.578 51.3628 125.454 43.4183 121.928 36.1111C121.843 35.9837 121.928 35.8137 122.056 35.7288C122.183 35.6438 122.353 35.6863 122.438 35.8137Z" fill="#FBFBFB"/>
</g>
</svg>
