<svg width="49" height="48" viewBox="0 0 49 48" fill="none" xmlns="http://www.w3.org/2000/svg">
<path d="M24.5 0C11.2446 0 0.5 10.7446 0.5 24C0.5 37.2554 11.2446 48 24.5 48C37.7554 48 48.5 37.2554 48.5 24C48.5 10.7446 37.7554 0 24.5 0ZM21.2655 37.0523C19.1037 39.216 15.4409 39.0591 11.4754 35.0954C7.51169 31.1298 8.21323 24 8.21323 24C8.21323 24 15.3431 23.2985 19.3086 27.264C23.2723 31.2277 23.4292 34.8905 21.2655 37.0523ZM18.9615 17.5385C18.9615 11.9317 24.5 7.38462 24.5 7.38462C24.5 7.38462 30.0385 11.9317 30.0385 17.5385C30.0385 23.1452 27.5572 25.8462 24.5 25.8462C21.4428 25.8462 18.9615 23.1452 18.9615 17.5385ZM37.5246 35.0954C33.5591 39.0591 29.8963 39.216 27.7345 37.0523C25.5708 34.8905 25.7277 31.2277 29.6914 27.2622C33.6569 23.2985 40.7868 24 40.7868 24C40.7868 24 41.4883 31.1298 37.5246 35.0954Z" fill="#F5B700"/>
</svg>
