<svg width="24" height="25" viewBox="0 0 24 25" fill="none" xmlns="http://www.w3.org/2000/svg">
<path d="M8.64002 14.4995L6.59002 12.4595M15.34 15.4995L12.88 13.0395M2.27002 22.1995C2.27002 22.1995 12.14 18.6995 15 15.8395C15.4183 15.4219 15.7502 14.926 15.9768 14.3802C16.2034 13.8343 16.3203 13.2491 16.3208 12.6581C16.3212 12.067 16.2053 11.4817 15.9795 10.9355C15.7538 10.3892 15.4226 9.89281 15.005 9.47455C14.5874 9.05628 14.0915 8.72437 13.5456 8.49776C12.9998 8.27115 12.4146 8.15427 11.8236 8.15381C11.2325 8.15335 10.6472 8.2693 10.1009 8.49506C9.5547 8.72081 9.05828 9.05194 8.64002 9.46954C5.77002 12.3395 2.27002 22.1995 2.27002 22.1995Z" stroke="#F5B700" stroke-width="2.11765" stroke-linecap="round" stroke-linejoin="round"/>
<path d="M22 9.49976C22 9.49976 20.67 7.49976 18.5 7.49976C16.86 7.49976 15 9.49976 15 9.49976C15 9.49976 16.33 11.4998 18.5 11.4998C20.67 11.4998 22 9.49976 22 9.49976Z" stroke="#F5B700" stroke-width="2.11765" stroke-linecap="round" stroke-linejoin="round"/>
<path d="M15 2.49951C15 2.49951 13 3.82951 13 5.99951C13 8.16951 15 9.49951 15 9.49951C15 9.49951 17 7.65951 17 5.99951C17 3.82951 15 2.49951 15 2.49951Z" stroke="#F5B700" stroke-width="2.11765" stroke-linecap="round" stroke-linejoin="round"/>
</svg>
