<svg width="24" height="25" viewBox="0 0 24 25" fill="none" xmlns="http://www.w3.org/2000/svg">
<path d="M18.5 21.5002C20.433 21.5002 22 19.9332 22 18.0002C22 16.0672 20.433 14.5002 18.5 14.5002C16.567 14.5002 15 16.0672 15 18.0002C15 19.9332 16.567 21.5002 18.5 21.5002Z" stroke="#00916E" stroke-width="2.11765" stroke-linecap="round" stroke-linejoin="round"/>
<path d="M5.5 21.5002C7.433 21.5002 9 19.9332 9 18.0002C9 16.0672 7.433 14.5002 5.5 14.5002C3.567 14.5002 2 16.0672 2 18.0002C2 19.9332 3.567 21.5002 5.5 21.5002Z" stroke="#00916E" stroke-width="2.11765" stroke-linecap="round" stroke-linejoin="round"/>
<path d="M15 6.5C15.5523 6.5 16 6.05228 16 5.5C16 4.94772 15.5523 4.5 15 4.5C14.4477 4.5 14 4.94772 14 5.5C14 6.05228 14.4477 6.5 15 6.5Z" stroke="#00916E" stroke-width="2.11765" stroke-linecap="round" stroke-linejoin="round"/>
<path d="M12 18.0002V14.5002L9 11.5002L13 8.50024L15 11.5002H17" stroke="#00916E" stroke-width="2.11765" stroke-linecap="round" stroke-linejoin="round"/>
</svg>
