<svg width="12" height="23" viewBox="0 0 12 23" fill="none" xmlns="http://www.w3.org/2000/svg">
<path d="M3 1.5V4.289C2.99998 5.07879 2.76616 5.8509 2.328 6.508L1.672 7.492C1.23366 8.14939 0.999823 8.92187 1 9.712V19.5C1 20.0304 1.21071 20.5391 1.58579 20.9142C1.96086 21.2893 2.46957 21.5 3 21.5H9C9.53043 21.5 10.0391 21.2893 10.4142 20.9142C10.7893 20.5391 11 20.0304 11 19.5V9.711C11 8.92121 10.7662 8.1491 10.328 7.492L9.672 6.508C9.23366 5.85061 8.99982 5.07813 9 4.288V1.5" stroke="#26547C" stroke-width="2" stroke-linecap="round" stroke-linejoin="round"/>
</svg>
