<svg width="1146" height="1431" viewBox="0 0 1146 1431" fill="none" xmlns="http://www.w3.org/2000/svg">
<path d="M52.0972 71.038C-33.9165 -28.5411 7.06052 -113.197 38.3007 -143.078L482.885 -619.535L2122.29 910.207L1677.71 1386.66C1650.06 1419.9 1568.44 1466.63 1463.15 1387.7C1331.54 1289.05 1292.62 1337.24 1240.18 1356.73C1187.73 1376.22 1124.52 1385.66 1049.3 1261.13C974.071 1136.6 882.931 1033.45 742.21 1030.94C629.633 1028.93 564.587 979.904 542.81 959.584C521.034 939.265 467.631 877.762 457.845 765.594C445.611 625.384 336.403 541.593 206.971 475.155C77.5402 408.717 82.5868 345.004 98.4048 291.341C114.223 237.679 159.614 195.512 52.0972 71.038Z" fill="black"/>
<path d="M52.0972 71.038C-33.9165 -28.5411 7.06052 -113.197 38.3007 -143.078L482.885 -619.535L2122.29 910.207L1677.71 1386.66C1650.06 1419.9 1568.44 1466.63 1463.15 1387.7C1331.54 1289.05 1292.62 1337.24 1240.18 1356.73C1187.73 1376.22 1124.52 1385.66 1049.3 1261.13C974.071 1136.6 882.931 1033.45 742.21 1030.94C629.633 1028.93 564.587 979.904 542.81 959.584C521.034 939.265 467.631 877.762 457.845 765.594C445.611 625.384 336.403 541.593 206.971 475.155C77.5402 408.717 82.5868 345.004 98.4048 291.341C114.223 237.679 159.614 195.512 52.0972 71.038Z" fill="url(#paint0_linear_373_4564)"/>
<defs>
<linearGradient id="paint0_linear_373_4564" x1="-765.042" y1="-411.364" x2="1226.03" y2="1193.9" gradientUnits="userSpaceOnUse">
<stop stop-color="#F6BB06"/>
<stop offset="0.505208" stop-color="#F7C415"/>
<stop offset="1" stop-color="#F4DD41"/>
</linearGradient>
</defs>
</svg>
