<svg width="1068" height="1239" viewBox="0 0 1068 1239" fill="none" xmlns="http://www.w3.org/2000/svg">
<path d="M93.1775 -663.215C59.0334 -790.292 132.75 -848.701 173.877 -862.021L781.431 -1097.7L1592.36 992.796L984.806 1228.47C945.456 1246.37 851.634 1252.95 791.152 1136.09C715.549 990.018 659.534 1016.49 603.836 1011.23C548.138 1005.97 487.112 986.981 473.533 842.129C459.955 697.277 422.75 564.751 297.127 501.287C196.63 450.516 159.378 378.082 148.606 350.314C137.835 322.546 116.496 243.939 156.467 138.678C206.431 7.10247 144.534 -115.846 56.8799 -231.962C-30.7744 -348.079 1.48002 -403.257 39.0624 -444.699C76.6449 -486.141 135.858 -504.369 93.1775 -663.215Z" fill="black"/>
<path d="M93.1775 -663.215C59.0334 -790.292 132.75 -848.701 173.877 -862.021L781.431 -1097.7L1592.36 992.796L984.806 1228.47C945.456 1246.37 851.634 1252.95 791.152 1136.09C715.549 990.018 659.534 1016.49 603.836 1011.23C548.138 1005.97 487.112 986.981 473.533 842.129C459.955 697.277 422.75 564.751 297.127 501.287C196.63 450.516 159.378 378.082 148.606 350.314C137.835 322.546 116.496 243.939 156.467 138.678C206.431 7.10247 144.534 -115.846 56.8799 -231.962C-30.7744 -348.079 1.48002 -403.257 39.0624 -444.699C76.6449 -486.141 135.858 -504.369 93.1775 -663.215Z" fill="url(#paint0_linear_373_4565)"/>
<defs>
<linearGradient id="paint0_linear_373_4565" x1="210.718" y1="-761.136" x2="885.143" y2="1749.12" gradientUnits="userSpaceOnUse">
<stop stop-color="#F6BA04"/>
<stop offset="0.195" stop-color="#F6BA04"/>
<stop offset="1" stop-color="#66B15B"/>
</linearGradient>
</defs>
</svg>
