<svg width="1920" height="1181" viewBox="0 0 1920 1181" fill="none" xmlns="http://www.w3.org/2000/svg">
<path d="M97.6108 1033.75C-19.2377 1027.14 -44.0636 985.125 -41.8705 964.941L-41.8705 0L1960.87 0V964.941C1963.06 985.125 1938.24 1027.14 1821.39 1033.75C1675.33 1042.01 1679.28 1070.91 1656.91 1094.3C1634.54 1117.7 1599.01 1141.09 1474 1122.51C1349 1103.93 1226.62 1097.74 1133.19 1141.78C1058.45 1177.01 986.102 1181 959.5 1181C932.898 1181 860.547 1177.01 785.806 1141.78C692.38 1097.74 570.005 1103.93 444.998 1122.51C319.991 1141.09 284.463 1117.7 262.093 1094.3C239.724 1070.91 243.671 1042.01 97.6108 1033.75Z" fill="#1D1534"/>
<path d="M97.6108 1033.75C-19.2377 1027.14 -44.0636 985.125 -41.8705 964.941L-41.8705 0L1960.87 0V964.941C1963.06 985.125 1938.24 1027.14 1821.39 1033.75C1675.33 1042.01 1679.28 1070.91 1656.91 1094.3C1634.54 1117.7 1599.01 1141.09 1474 1122.51C1349 1103.93 1226.62 1097.74 1133.19 1141.78C1058.45 1177.01 986.102 1181 959.5 1181C932.898 1181 860.547 1177.01 785.806 1141.78C692.38 1097.74 570.005 1103.93 444.998 1122.51C319.991 1141.09 284.463 1117.7 262.093 1094.3C239.724 1070.91 243.671 1042.01 97.6108 1033.75Z" fill="url(#paint0_linear_373_4560)"/>
<defs>
<linearGradient id="paint0_linear_373_4560" x1="-42.0001" y1="47.1237" x2="2483.58" y2="749.818" gradientUnits="userSpaceOnUse">
<stop stop-color="#F5B700"/>
<stop offset="0.305578" stop-color="#FADE3F"/>
<stop offset="1" stop-color="#00916E"/>
</linearGradient>
</defs>
</svg>
