<svg width="24" height="25" viewBox="0 0 24 25" fill="none" xmlns="http://www.w3.org/2000/svg">
<path d="M8 2.5H16" stroke="#26547C" stroke-width="2" stroke-linecap="round" stroke-linejoin="round"/>
<path d="M9 2.5V5.289C8.99998 6.07879 8.76616 6.8509 8.328 7.508L7.672 8.492C7.23366 9.14939 6.99982 9.92187 7 10.712V20.5C7 21.0304 7.21071 21.5391 7.58579 21.9142C7.96086 22.2893 8.46957 22.5 9 22.5H15C15.5304 22.5 16.0391 22.2893 16.4142 21.9142C16.7893 21.5391 17 21.0304 17 20.5V10.711C17 9.92121 16.7662 9.1491 16.328 8.492L15.672 7.508C15.2337 6.85061 14.9998 6.07813 15 5.288V2.5" stroke="#26547C" stroke-width="2" stroke-linecap="round" stroke-linejoin="round"/>
<path d="M7 12.0023C7.79177 11.6708 8.6416 11.5 9.5 11.5C10.3584 11.5 11.2082 11.6708 12 12.0023C12.7917 12.334 13.6416 12.5049 14.5 12.5049C15.3584 12.5049 16.2083 12.334 17 12.0023" stroke="#26547C" stroke-width="2" stroke-linecap="round" stroke-linejoin="round"/>
<rect x="7" y="12.5" width="10" height="9" fill="#26547C"/>
</svg>
